<svg width="863" height="834" viewBox="0 0 863 834" fill="none" xmlns="http://www.w3.org/2000/svg">
<path d="M504.796 690.982C681.579 690.982 824.889 646.044 824.889 590.611C824.889 535.178 681.579 490.241 504.796 490.241C328.014 490.241 184.704 535.178 184.704 590.611C184.704 646.044 328.014 690.982 504.796 690.982Z" fill="#FBC143"/>
<path d="M739.889 557C761.741 566.907 774.148 578.389 774.148 590.611C774.148 628.574 653.593 659.407 504.796 659.407C356 659.407 235.444 628.667 235.444 590.611C235.444 555.796 336.556 527.093 467.852 522.463" stroke="#126C0F" stroke-width="1.5" stroke-miterlimit="10" stroke-linecap="round" stroke-linejoin="round"/>
<path d="M568.593 461.537C672.389 461.444 754.241 436.444 803.5 417.278C694.519 389.593 614.241 285.056 614.241 285.056C630.63 293.389 650.815 301.815 674.611 308.296C721.463 320.981 762.574 320.426 790.722 317.556C758.222 300.611 718.407 275.148 679.333 237.093C662.482 220.611 648.222 204.222 636.185 188.667C645.815 193.852 657.111 199.037 670.074 203.481C699.333 213.481 725.722 215.796 745.167 215.704C706.37 187 657.389 143.481 614.056 80.4259C594.796 52.3703 579.889 25.2407 568.315 0.611084C556.741 25.3333 541.833 52.4629 522.574 80.4259C479.241 143.481 430.259 187 391.463 215.704C410.907 215.796 437.296 213.574 466.556 203.481C479.519 199.037 490.815 193.852 500.444 188.667C488.5 204.13 474.241 220.611 457.296 237.093C418.222 275.148 378.407 300.611 345.907 317.556C374.056 320.426 415.167 320.981 462.019 308.296C485.815 301.907 506 293.389 522.389 285.056C522.389 285.056 442.111 389.593 333.13 417.278C382.389 436.537 464.519 461.63 568.593 461.537Z" fill="#126C0F"/>
<path d="M517.944 163.111C513.5 170.611 508.593 178.296 503.037 186.074C482.852 214.407 460.722 236.074 440.722 252.37" stroke="#131B24" stroke-width="1.5" stroke-miterlimit="10" stroke-linecap="round" stroke-linejoin="round"/>
<path d="M530.444 279.5C524.796 283.111 518.5 286.815 511.555 290.333C498.685 296.815 486.463 301.167 475.907 304.222" stroke="#131B24" stroke-width="1.5" stroke-miterlimit="10" stroke-linecap="round" stroke-linejoin="round"/>
<path d="M654.796 302.185C671.463 307.833 692.389 313.481 716.833 316.629C745.815 320.333 771.092 319.592 790.722 317.463" stroke="#131B24" stroke-width="1.5" stroke-miterlimit="10" stroke-linecap="round" stroke-linejoin="round"/>
<path d="M598.13 177.926C605.8 177.926 612.019 171.708 612.019 164.037C612.019 156.366 605.8 150.148 598.13 150.148C590.459 150.148 584.241 156.366 584.241 164.037C584.241 171.708 590.459 177.926 598.13 177.926Z" fill="#FBC143"/>
<path d="M499.148 231.907C506.819 231.907 513.037 225.689 513.037 218.019C513.037 210.348 506.819 204.13 499.148 204.13C491.478 204.13 485.259 210.348 485.259 218.019C485.259 225.689 491.478 231.907 499.148 231.907Z" fill="#FBC143"/>
<path d="M564.426 81.9074C572.096 81.9074 578.315 75.6891 578.315 68.0185C578.315 60.3479 572.096 54.1296 564.426 54.1296C556.755 54.1296 550.537 60.3479 550.537 68.0185C550.537 75.6891 556.755 81.9074 564.426 81.9074Z" fill="#FBC143"/>
<path d="M516 141.63C521.983 141.63 526.833 136.779 526.833 130.796C526.833 124.813 521.983 119.963 516 119.963C510.017 119.963 505.167 124.813 505.167 130.796C505.167 136.779 510.017 141.63 516 141.63Z" fill="#B0CFF8"/>
<path d="M681.37 289.407C689.041 289.407 695.259 283.189 695.259 275.519C695.259 267.848 689.041 261.63 681.37 261.63C673.7 261.63 667.482 267.848 667.482 275.519C667.482 283.189 673.7 289.407 681.37 289.407Z" fill="#FBC143"/>
<path d="M524.704 347.185C532.374 347.185 538.593 340.967 538.593 333.296C538.593 325.626 532.374 319.407 524.704 319.407C517.033 319.407 510.815 325.626 510.815 333.296C510.815 340.967 517.033 347.185 524.704 347.185Z" fill="#FBC143"/>
<path d="M588.407 280.148C594.953 280.148 600.259 274.842 600.259 268.296C600.259 261.751 594.953 256.444 588.407 256.444C581.862 256.444 576.556 261.751 576.556 268.296C576.556 274.842 581.862 280.148 588.407 280.148Z" fill="#B0CFF8"/>
<path d="M396 421.444C402.546 421.444 407.852 416.138 407.852 409.593C407.852 403.047 402.546 397.741 396 397.741C389.454 397.741 384.148 403.047 384.148 409.593C384.148 416.138 389.454 421.444 396 421.444Z" fill="#B0CFF8"/>
<path d="M711.093 412.185C717.638 412.185 722.945 406.879 722.945 400.333C722.945 393.788 717.638 388.481 711.093 388.481C704.547 388.481 699.241 393.788 699.241 400.333C699.241 406.879 704.547 412.185 711.093 412.185Z" fill="#B0CFF8"/>
<path d="M650.722 362.463H570.722V503.296H650.722V362.463Z" fill="#FD4926"/>
<path d="M604.982 362.463V468.204" stroke="white" stroke-width="1.5" stroke-miterlimit="10" stroke-linecap="round" stroke-linejoin="round"/>
<path d="M617.667 362.463V433.389" stroke="white" stroke-width="1.5" stroke-miterlimit="10" stroke-linecap="round" stroke-linejoin="round"/>
<path d="M599.519 326.445C574.148 291.907 557.667 330.148 610.259 362.463C609.981 344.037 603.593 332.37 599.519 326.445Z" stroke="#131B24" stroke-width="1.5" stroke-miterlimit="10" stroke-linecap="round" stroke-linejoin="round"/>
<path d="M628.315 339.778C639.519 310.241 609.333 319.685 610.352 362.463C621.556 353.574 626.278 344.685 628.315 339.778Z" stroke="#131B24" stroke-width="1.5" stroke-miterlimit="10" stroke-linecap="round" stroke-linejoin="round"/>
<path d="M524.148 362.185C529.611 355.518 542.204 353.667 544.426 364.037C548.037 380.796 524.333 401.167 521.648 403.389C517.759 406.63 512.204 410.704 504.796 414.407C504.611 408.296 504.982 398.389 509.056 387C513.407 375.056 519.889 366.722 524.148 362.185Z" stroke="#131B24" stroke-width="1.5" stroke-miterlimit="10" stroke-linecap="round" stroke-linejoin="round"/>
<path d="M474.333 393.204C470.907 388.482 471.741 380.056 478.87 380.333C490.444 380.704 499.704 399.593 500.722 401.722C502.204 404.778 503.963 409.037 505.074 414.5C501.093 413.667 494.611 411.722 487.944 407.185C480.907 402.278 476.648 396.63 474.333 393.204Z" stroke="#131B24" stroke-width="1.5" stroke-miterlimit="10" stroke-linecap="round" stroke-linejoin="round"/>
<path d="M584.241 414.407H443.685V510.889H584.241V414.407Z" fill="#FD4926"/>
<path d="M584.148 414.407H526.833V510.889H584.148V414.407Z" fill="#8F1A09"/>
<path d="M492.204 414.407H480.537V510.889H492.204V414.407Z" fill="white"/>
<path d="M564.426 414.407H552.759V510.889H564.426V414.407Z" fill="white"/>
<path d="M494.796 754.13L494.241 754.315C494.056 754.037 495.074 753.667 494.796 754.13Z" fill="#131B24"/>
<path d="M126.926 775.333C123.407 778.759 119.611 781.815 115.722 784.592C87.0185 805.426 52.7593 810.426 52.7593 810.426C-9.92592 821.444 33.1296 793.944 75.0741 772C75.0741 772 74.0556 768.667 72.9445 764.407C71.5556 759.222 70.0741 752.741 70.1667 749.592C79.5185 746.167 89.7037 743.481 99.4259 740.796C101.278 740.241 103.222 739.685 105.074 739.222C105.259 739.407 106 740.148 107.204 741.444C111.648 746.167 121.741 757.278 126.556 764.037C128.593 767 131.093 771.537 126.926 775.333Z" fill="#FD4926"/>
<path d="M126.926 775.333C123.407 778.759 119.611 781.815 115.722 784.593C109.704 783.482 103.87 781.537 98.3149 779.13C89.3334 775.241 80.9075 770.056 72.9445 764.407C71.5556 759.222 70.0741 752.741 70.1667 749.593C79.5186 746.167 89.7038 743.482 99.426 740.796C102.019 740.889 104.611 741.074 107.111 741.445C111.556 746.167 121.648 757.278 126.463 764.037C128.593 767 131.093 771.537 126.926 775.333Z" fill="#8F1A09"/>
<path d="M494.796 754.13L494.241 754.315C494.056 754.037 495.074 753.667 494.796 754.13Z" fill="#FD4926"/>
<path d="M538.13 819.5C535.815 821.722 532.204 822 528.963 821.63C522.111 820.704 515.907 817.463 509.982 813.945C493.315 804.037 478.13 791.907 463.315 779.407C459.704 776.352 456.093 773.204 452.482 770.148L494.148 754.407C494.148 754.5 494.148 754.5 494.241 754.5C494.611 754.963 495.352 754.685 495.907 754.778C496.648 754.87 497.204 755.426 497.759 755.982C503.037 761.907 508.315 767.833 513.593 773.759C515.352 775.704 517.019 777.648 518.778 779.593C525.63 787.463 532.296 795.519 537.389 804.5C539.982 809.222 542.019 815.796 538.13 819.5Z" fill="#FD4926"/>
<path d="M518.685 779.593C508.963 783.667 497.667 783.574 487.019 783.019C479.056 782.556 470.815 781.815 463.315 779.407C459.704 776.352 456.093 773.204 452.482 770.148L494.148 754.407C494.148 754.5 494.148 754.5 494.241 754.5C494.611 754.963 495.352 754.685 495.907 754.778C496.648 754.87 497.204 755.426 497.759 755.982C503.037 761.907 508.315 767.833 513.593 773.759C515.259 775.704 517.019 777.556 518.685 779.593Z" fill="#8F1A09"/>
<path d="M517.852 764.87C504.519 775.055 484.982 776.815 468.778 775.981C457.204 775.426 447.296 774.037 439.704 771.907C372.019 689.037 322.389 625.796 288.407 581.722C265.352 551.907 245.167 525.241 211.833 520.056C156.648 511.444 106.833 568.204 92.0186 586.259C110.537 647.278 128.963 708.389 147.482 769.407C114.148 784.593 65.9075 761.815 65.9075 761.815C65.9075 761.815 -17.1481 580.796 3.87043 549.037C24.8889 517.278 123.778 457.833 123.778 457.833V457.463L123.593 451.074L122.759 427.556L251 407.37L259.241 421.444C260.259 422.926 478.685 688.574 517.852 764.87Z" fill="#1D2E59"/>
<path d="M253.5 427.556C225.722 473.204 168.13 460.981 123.685 457.463L123.5 451.074C127.852 443.481 126 435.611 136.463 432.833C161.185 423.944 188.407 426.722 214.611 425.426C227.667 424.87 241.185 423.204 253.5 427.556Z" fill="#131B24"/>
<path d="M737.667 709.778C737.667 715.981 738.407 719.685 738.407 719.685C738.407 719.685 727.204 731.074 712.667 737.37C708.407 739.222 704.148 740.426 701.556 738.481C701.556 738.481 700.074 737.37 699.519 735.148C697.759 727.555 719.982 714.963 723.685 712.926C720.537 707.741 718.685 699.315 717.667 692.185C716.556 684.87 716.37 678.944 716.37 678.944C724.241 683.018 732.111 687.185 739.889 691.259C738.315 697.833 737.852 703.759 737.759 708.389C737.667 708.852 737.667 709.315 737.667 709.778Z" fill="#A66946"/>
<path d="M739.796 691.259C738.222 697.833 737.759 703.759 737.667 708.389C729.982 704.592 723.407 698.759 717.667 692.185C716.556 684.87 716.37 678.944 716.37 678.944C724.148 683.111 731.926 687.185 739.796 691.259Z" fill="#131B24"/>
<path d="M694.241 638.296C694.241 638.296 686.556 651.722 671.093 667.741C667.296 671.722 662.944 675.889 658.13 679.963C641.185 694.592 634.333 691.722 631.926 687.555C629.518 683.481 635.722 677.37 642.296 672.833C663.13 657.37 672.481 641.815 676.741 631.444C679.889 623.852 680.167 618.944 680.167 618.944L694.241 638.296Z" fill="#A66946"/>
<path d="M694.241 638.296C694.241 638.296 686.556 651.722 671.093 667.741C672.204 662 673.87 656.352 674.796 650.611C675.537 646.352 675.815 642.092 676.185 637.833C676.37 635.704 676.556 633.574 676.648 631.444C679.796 623.852 680.074 618.944 680.074 618.944L694.241 638.296Z" fill="#131B24"/>
<path d="M650.259 550.333C655.63 551.537 663.5 553.852 674.056 558.296C675.259 558.944 676.556 559.778 676.37 560.333C675.908 562.093 660.63 559.315 654.148 558.111C639.056 555.333 635.444 553.389 632.852 550.333C630.259 547.37 629.148 544.037 628.593 541.722C630.352 542.833 633.037 544.407 636.463 545.981C642.852 548.667 647.944 549.778 650.259 550.333Z" fill="#666666"/>
<path d="M862.296 689.592C848.963 691.167 810.352 669.778 810.352 669.778C810.352 669.778 805.444 681.815 792.482 692C779.519 702.185 773.315 713.018 771.463 730.333C768.87 733.667 753.778 753.018 744.333 750.148C743.685 749.963 741 749.13 740.259 747C739.333 744.222 742.482 740.889 746.648 736.629C750.815 732.37 755.722 727.463 761.463 721.907C759.982 719.685 758.13 716.444 756.741 712.37C755.167 707.555 754.796 703.296 754.796 700.426C755.63 699.963 704.519 694.037 690.444 667.463C683.778 654.778 680.537 624.685 674.519 601.074C668.5 577.463 663.5 570.148 653.87 563.759C644.241 557.37 636.185 553.759 632.019 550.611C630.167 549.222 626.741 544.592 627.667 539.87C627.852 538.944 628.222 538.204 628.407 537.648C628.13 537.555 627.759 537.37 627.296 537C625.352 535.518 624.333 532.741 624.704 530.981C625.444 527.926 629.426 526.537 632.852 525.611C639.889 523.759 648.13 524.685 648.13 524.685L666.37 534.778C666.37 534.778 688.963 518.111 700.074 527.648C711.185 537.185 706.278 556.074 702.204 563.759C708.685 577.093 711.185 592.833 720.722 605.148C724.704 610.241 729.148 614.592 736 618.204C745.63 623.389 759.889 627.278 783.778 630.148C796.463 631.722 808.037 639.963 812.482 649.222C814.241 652.833 814.889 656.537 814.056 660.148C832.944 673.852 828.315 674.13 862.296 689.592Z" fill="#A66946"/>
<path d="M812.482 649.407C812.019 649.407 811.463 649.5 811 649.5C802.482 650.333 794.056 653.389 786.926 658.204C784.426 659.87 782.111 661.815 779.241 662.741C772.204 665.241 764.056 661.074 759.796 654.963C755.63 649.129 754.148 641.907 750.907 635.611C747.389 628.759 742.019 623.296 736.093 618.296C745.722 623.481 759.982 627.37 783.87 630.241C796.463 631.815 808.037 640.148 812.482 649.407Z" fill="#D49A6F"/>
<path d="M696.741 638.204C696.741 638.204 692.945 667.833 669.796 696.259C660.815 708.389 666.463 718.574 679.241 709.407C692.019 700.241 707.019 672.833 710.167 652.37" fill="#A66946"/>
<path d="M743.037 746.815C744.148 744.87 745.815 743.296 747.667 742.185" stroke="#131B24" stroke-width="1.5" stroke-miterlimit="10" stroke-linecap="round" stroke-linejoin="round"/>
<path d="M745.074 749.129C746.093 747.463 747.482 746.074 749.056 745.055" stroke="#131B24" stroke-width="1.5" stroke-miterlimit="10" stroke-linecap="round" stroke-linejoin="round"/>
<path d="M701 737.185C701.926 735.426 703.315 733.944 704.889 732.74" stroke="#131B24" stroke-width="1.5" stroke-miterlimit="10" stroke-linecap="round" stroke-linejoin="round"/>
<path d="M704.426 737.926C705.259 736.722 706.185 735.518 707.019 734.407" stroke="#131B24" stroke-width="1.5" stroke-miterlimit="10" stroke-linecap="round" stroke-linejoin="round"/>
<path d="M666.278 710.333C666.741 708.203 667.852 706.352 669.426 704.778" stroke="#131B24" stroke-width="1.5" stroke-miterlimit="10" stroke-linecap="round" stroke-linejoin="round"/>
<path d="M668.222 711.352C668.685 710.426 669.241 709.592 669.796 708.759" stroke="#131B24" stroke-width="1.5" stroke-miterlimit="10" stroke-linecap="round" stroke-linejoin="round"/>
<path d="M672.574 712.185C672.944 711.074 673.5 710.055 674.241 709.129" stroke="#131B24" stroke-width="1.5" stroke-miterlimit="10" stroke-linecap="round" stroke-linejoin="round"/>
<path d="M758.5 677.37C756.371 686.352 754.333 695.611 755.63 704.778" stroke="#131B24" stroke-width="1.5" stroke-miterlimit="10" stroke-linecap="round" stroke-linejoin="round"/>
<path d="M814.796 657.185C814.518 660.055 813.778 662.833 812.481 665.426" stroke="#131B24" stroke-width="1.5" stroke-miterlimit="10" stroke-linecap="round" stroke-linejoin="round"/>
<path d="M631.648 686.167C632.852 684.5 634.426 683.204 636.185 682.185" stroke="#131B24" stroke-width="1.5" stroke-miterlimit="10" stroke-linecap="round" stroke-linejoin="round"/>
<path d="M633.87 689.13C634.426 688.019 635.352 687.093 636.463 686.537" stroke="#131B24" stroke-width="1.5" stroke-miterlimit="10" stroke-linecap="round" stroke-linejoin="round"/>
<path d="M638.037 690.333C638.685 689.5 639.426 688.667 640.074 687.926" stroke="#131B24" stroke-width="1.5" stroke-miterlimit="10" stroke-linecap="round" stroke-linejoin="round"/>
<path d="M708.593 661.167C705.63 672.463 700.722 683.204 694.241 692.926" stroke="#131B24" stroke-width="1.5" stroke-miterlimit="10" stroke-linecap="round" stroke-linejoin="round"/>
<path d="M376.556 303.389C381.278 300.426 383.778 298.111 384.704 297C386 295.519 386.555 293.759 386.833 292C387.111 290.426 385.63 289.13 384.055 289.5C380.537 290.519 376.185 291.907 371.185 293.759C358.037 298.852 351.463 301.444 347.018 307.278C340.259 316.259 339.426 330.333 339.426 330.333L351.185 350.241C351.185 350.241 377.481 346.722 387.296 339.222C383.685 327.37 380.074 315.333 376.556 303.389Z" fill="#6E4D41"/>
<path d="M361.833 348.204C358.5 355.796 353.037 366.167 344.241 377.185C339.889 382.648 320.815 406.444 303.222 410.426C299.519 411.259 295.63 411.352 291.463 410.611C291 410.519 290.537 410.426 289.982 410.333C289.056 410.148 288.13 409.87 287.111 409.593C274.611 406.074 260.907 396.167 248.037 380.981C245.444 377.926 242.852 374.593 240.352 371.074C231.278 358.481 222.852 343.204 215.907 325.611L215.259 310.148L212.019 230.981C229.889 247.741 250.63 270.704 269.704 300.704C280.352 317.556 288.593 333.667 295.074 348.296C306.648 338.667 318.407 329.037 330.352 319.407C336.278 314.685 342.111 309.963 347.944 305.333C346.741 306.815 337.574 318.667 341.37 332.093C342.111 334.5 343.963 341.167 350.537 345.241C355.167 348.018 359.611 348.204 361.833 348.204Z" fill="#B0CFF8"/>
<path d="M287.204 409.593C274.704 406.074 261 396.167 248.13 380.981C245.537 377.926 242.945 374.593 240.445 371.074C229.889 350.426 226.833 331.722 225.722 321.722L227.945 305.889C228.593 305.426 229.889 304.685 231.556 304.407C234.982 303.944 237.482 305.981 238.037 306.352C241 319.87 245.537 335.056 252.389 351.167C262.389 374.685 274.889 394.037 287.204 409.593Z" fill="#131B24"/>
<path d="M268.963 419.87C241.093 444.685 217.852 450.611 201.185 451.074C179.889 451.63 159.889 443.574 127.482 450.981C118.685 453.019 111.648 455.519 107.019 457.37C106.556 455.426 106.093 453.481 105.63 451.444C102.945 439.87 100.352 427.833 98.0371 415.333C96.7408 408.296 95.4446 401.074 94.2409 393.759C89.9816 367.648 87.1112 343.019 85.352 320.056L53.8705 263.944C63.5001 250.796 75.6297 240.148 90.7223 233.296C112.111 223.667 136.648 220.333 141.37 219.87C163.222 217.648 186.741 214.963 205.259 225.982C226.278 238.389 231.741 267.278 243.593 323.574C247.111 340.241 248.685 352.093 254.889 375.333C260.074 394.407 265.259 409.778 268.963 419.87Z" fill="#B0CFF8"/>
<path d="M164.241 229.685C163.222 230.981 154.333 241.074 140.167 240.426C129.333 239.963 122.389 233.389 120.722 231.722C120.352 210.148 119.982 188.667 119.611 167.093C131.278 174.778 142.852 182.555 154.519 190.241C154.519 190.426 154.611 190.518 154.611 190.704C157.482 202.37 160.352 214.037 163.222 225.704C163.593 227 163.963 228.296 164.241 229.685Z" fill="#6E4D41"/>
<path d="M163.315 225.704C142.019 235.889 129.148 208.018 125.352 189.037L133.593 183.111C140.445 185.518 147.759 187.093 154.241 190.518C154.426 190.611 154.519 190.704 154.704 190.796C157.574 202.37 160.445 214.037 163.315 225.704Z" fill="#131B24"/>
<path d="M135.722 391.259C134.796 395.333 133.593 399.778 131.926 404.222C124.889 423.481 113.222 437 104.241 445.333C103.407 441.537 102.574 437.741 101.741 433.852C100.445 427.648 99.2408 421.444 98.0371 415.426C111.185 402.463 128.037 394.5 135.722 391.259Z" fill="#131B24"/>
<path d="M164.426 321.074C164.426 321.074 170.908 321.722 173.037 322.741C175.167 323.667 174.796 334.963 170.259 337.37C165.722 339.778 148.685 335.148 148.685 335.148C149.333 333.296 151 329.593 154.704 326.259C158.5 322.648 162.482 321.444 164.426 321.074Z" fill="#6E4D41"/>
<path d="M174.519 319.685C171.278 320.704 168.037 321.722 165.074 323.204C162.111 324.685 159.241 326.722 157.296 329.5C156.37 330.796 155.722 332.463 156.463 333.852C157.204 335.241 158.963 335.518 160.537 335.611C166.556 335.704 172.574 333.667 177.111 329.778L174.519 319.685Z" fill="#543B32"/>
<path d="M667.019 832.926C682.389 813.204 704.241 799.5 726.463 788.019C748.685 776.537 771.926 766.815 792.759 752.833C800.815 747.463 808.685 741.259 813.315 732.741C819.426 721.537 819.241 707.926 816.741 695.426C813.037 676.722 800.352 651.167 743.407 606.722C723.407 591.167 694.704 570.704 657.296 550.241" stroke="#131B24" stroke-width="1.5" stroke-miterlimit="10" stroke-linecap="round" stroke-linejoin="round"/>
<path d="M137.204 516.722C137.204 516.722 140.259 468.481 144.056 428.759C150.167 365.981 153.407 334.407 167.019 321.722C173.222 315.889 179.241 313.111 241.648 305.519C333.222 294.315 356.093 295.889 368.685 310.889C376.926 320.796 379.241 331.352 379.982 334.593C386.278 363.759 444.704 420.889 625.63 534.963" stroke="#131B24" stroke-width="1.5" stroke-miterlimit="10" stroke-linecap="round" stroke-linejoin="round"/>
<path d="M420.352 385.241C423.932 385.241 426.833 382.339 426.833 378.759C426.833 375.18 423.932 372.278 420.352 372.278C416.772 372.278 413.87 375.18 413.87 378.759C413.87 382.339 416.772 385.241 420.352 385.241Z" fill="#1D2E59"/>
<path d="M380.815 360.611C384.394 360.611 387.296 357.709 387.296 354.13C387.296 350.55 384.394 347.648 380.815 347.648C377.235 347.648 374.333 350.55 374.333 354.13C374.333 357.709 377.235 360.611 380.815 360.611Z" fill="#FBC143"/>
<path d="M356.833 302.185C360.413 302.185 363.315 299.283 363.315 295.704C363.315 292.124 360.413 289.222 356.833 289.222C353.254 289.222 350.352 292.124 350.352 295.704C350.352 299.283 353.254 302.185 356.833 302.185Z" fill="#1D2E59"/>
<path d="M303.408 311.259C306.987 311.259 309.889 308.357 309.889 304.778C309.889 301.198 306.987 298.296 303.408 298.296C299.828 298.296 296.926 301.198 296.926 304.778C296.926 308.357 299.828 311.259 303.408 311.259Z" fill="#FBC143"/>
<path d="M249.241 304.778C252.82 304.778 255.722 301.876 255.722 298.296C255.722 294.717 252.82 291.815 249.241 291.815C245.661 291.815 242.759 294.717 242.759 298.296C242.759 301.876 245.661 304.778 249.241 304.778Z" fill="#FBC143"/>
<path d="M193.13 326.167C196.709 326.167 199.611 323.265 199.611 319.685C199.611 316.105 196.709 313.204 193.13 313.204C189.55 313.204 186.648 316.105 186.648 319.685C186.648 323.265 189.55 326.167 193.13 326.167Z" fill="#1D2E59"/>
<path d="M147.574 358.944C151.154 358.944 154.056 356.043 154.056 352.463C154.056 348.883 151.154 345.981 147.574 345.981C143.995 345.981 141.093 348.883 141.093 352.463C141.093 356.043 143.995 358.944 147.574 358.944Z" fill="#1D2E59"/>
<path d="M153.13 406.815C156.709 406.815 159.611 403.913 159.611 400.333C159.611 396.754 156.709 393.852 153.13 393.852C149.55 393.852 146.648 396.754 146.648 400.333C146.648 403.913 149.55 406.815 153.13 406.815Z" fill="#FBC143"/>
<path d="M137.204 451.537C140.783 451.537 143.685 448.635 143.685 445.055C143.685 441.476 140.783 438.574 137.204 438.574C133.624 438.574 130.722 441.476 130.722 445.055C130.722 448.635 133.624 451.537 137.204 451.537Z" fill="#FBC143"/>
<path d="M454.241 431.907C457.82 431.907 460.722 429.005 460.722 425.426C460.722 421.846 457.82 418.944 454.241 418.944C450.661 418.944 447.759 421.846 447.759 425.426C447.759 429.005 450.661 431.907 454.241 431.907Z" fill="#1D2E59"/>
<path d="M511.463 458.019C515.043 458.019 517.945 455.117 517.945 451.537C517.945 447.958 515.043 445.056 511.463 445.056C507.883 445.056 504.982 447.958 504.982 451.537C504.982 455.117 507.883 458.019 511.463 458.019Z" fill="#FBC143"/>
<path d="M542.482 495.796C546.061 495.796 548.963 492.894 548.963 489.315C548.963 485.735 546.061 482.833 542.482 482.833C538.902 482.833 536 485.735 536 489.315C536 492.894 538.902 495.796 542.482 495.796Z" fill="#FBC143"/>
<path d="M596.926 515.241C600.506 515.241 603.407 512.339 603.407 508.759C603.407 505.18 600.506 502.278 596.926 502.278C593.346 502.278 590.444 505.18 590.444 508.759C590.444 512.339 593.346 515.241 596.926 515.241Z" fill="#1D2E59"/>
<path d="M711.833 585.704C715.413 585.704 718.315 582.802 718.315 579.222C718.315 575.643 715.413 572.741 711.833 572.741C708.254 572.741 705.352 575.643 705.352 579.222C705.352 582.802 708.254 585.704 711.833 585.704Z" fill="#1D2E59"/>
<path d="M746.278 622.741C749.857 622.741 752.759 619.839 752.759 616.259C752.759 612.679 749.857 609.778 746.278 609.778C742.698 609.778 739.796 612.679 739.796 616.259C739.796 619.839 742.698 622.741 746.278 622.741Z" fill="#1D2E59"/>
<path d="M793.315 643.944C796.894 643.944 799.796 641.042 799.796 637.463C799.796 633.883 796.894 630.981 793.315 630.981C789.735 630.981 786.833 633.883 786.833 637.463C786.833 641.042 789.735 643.944 793.315 643.944Z" fill="#FBC143"/>
<path d="M809.519 699.315C813.098 699.315 816 696.413 816 692.833C816 689.254 813.098 686.352 809.519 686.352C805.939 686.352 803.037 689.254 803.037 692.833C803.037 696.413 805.939 699.315 809.519 699.315Z" fill="#FBC143"/>
<path d="M814.519 750.796C818.098 750.796 821 747.894 821 744.315C821 740.735 818.098 737.833 814.519 737.833C810.939 737.833 808.037 740.735 808.037 744.315C808.037 747.894 810.939 750.796 814.519 750.796Z" fill="#FBC143"/>
<path d="M769.611 765.333C773.191 765.333 776.093 762.431 776.093 758.852C776.093 755.272 773.191 752.37 769.611 752.37C766.031 752.37 763.13 755.272 763.13 758.852C763.13 762.431 766.031 765.333 769.611 765.333Z" fill="#1D2E59"/>
<path d="M727.111 802.37C730.691 802.37 733.593 799.468 733.593 795.889C733.593 792.309 730.691 789.407 727.111 789.407C723.531 789.407 720.63 792.309 720.63 795.889C720.63 799.468 723.531 802.37 727.111 802.37Z" fill="#1D2E59"/>
<path d="M634.241 534.592C635.074 533.481 636 532.463 636.833 531.352" stroke="#131B24" stroke-width="1.5" stroke-miterlimit="10" stroke-linecap="round" stroke-linejoin="round"/>
<path d="M682.111 526.352C692.296 512.37 681.741 495.889 681.463 480.704C679.796 469.037 692.852 464.592 695.537 477.37C699.519 493.204 700.63 512.278 692.111 526.815" fill="#A66946"/>
<path d="M702.574 535.426C706 535.981 709.519 535.148 712.667 533.574C715.722 531.907 718.315 529.5 720.444 526.815C727.204 518.389 729.889 507.37 735.815 498.204C737.204 496.074 739.056 493.852 741.648 493.481C743.87 493.204 746 494.5 747.296 496.259C748.593 498.018 749.056 500.333 749.241 502.463C749.611 508.204 747.945 514.037 745.259 519.13C741.185 526.907 734.796 533.389 727.389 538.018C719.982 542.648 711.463 545.611 702.759 546.907" fill="#A66946"/>
<path d="M640.722 529.5C642.296 530.241 644.148 530.796 645.815 530.333C648.315 529.685 649.889 526.907 649.611 524.315C649.333 521.722 647.481 519.5 645.167 518.389C642.667 517.093 637.204 517 635.63 519.963C633.593 524.037 637.296 527.926 640.722 529.5Z" fill="#131B24"/>
<path d="M684.611 543.759C692.111 538.204 696.741 546.074 688.778 550.241" stroke="#131B24" stroke-width="1.5" stroke-miterlimit="10" stroke-linecap="round" stroke-linejoin="round"/>
<path d="M675.167 531.444C675.537 531.167 679.611 528.574 682.111 530.056C682.389 530.241 682.759 530.426 682.945 530.889C683.593 532.278 682.019 534.685 678.963 537.093" stroke="#131B24" stroke-width="1.5" stroke-miterlimit="10" stroke-linecap="round" stroke-linejoin="round"/>
<path d="M696.648 544.87C702.574 547.37 695.63 530.148 692.759 536.63C691.741 539.407 694.519 543.389 696.648 544.87Z" fill="#131B24"/>
<path d="M685.63 530.148C686.37 530.333 687.296 530.426 687.667 529.778C688.037 529.129 687.481 528.389 686.926 527.926C685.722 527 684.333 526.352 682.852 526.074C681.37 525.889 679.148 526.629 680.907 528.018C682.111 529.037 684.056 529.685 685.63 530.148Z" fill="#131B24"/>
<path d="M628.222 536.63C628.778 536.907 629.704 537.278 630.815 537.278C631.278 537.278 631.741 537.185 632.019 537.093C632.111 537.833 632.759 541.445 635.907 543.852C636.556 544.315 639.704 546.63 643.5 545.796C644.611 545.519 645.445 545.148 646 544.778C648.87 546.259 651.741 547.833 654.889 549.315C660.074 551.815 665.074 554.037 669.889 555.889" stroke="#131B24" stroke-width="1.5" stroke-miterlimit="10" stroke-linecap="round" stroke-linejoin="round"/>
<path d="M706.741 542.093C707.389 545.889 707.111 549.778 706 553.481" stroke="#131B24" stroke-width="1.5" stroke-miterlimit="10" stroke-linecap="round" stroke-linejoin="round"/>
<path d="M732.759 509.778C731.37 515.333 727.482 526.63 716.926 534.037C714.982 535.426 713.037 536.537 711.093 537.37" stroke="#131B24" stroke-width="1.5" stroke-miterlimit="10" stroke-linecap="round" stroke-linejoin="round"/>
<path d="M684.796 475.796C686.741 474.037 688.037 473.944 688.778 474.13C694.796 475.148 698.315 495.241 694.704 512.278C694.056 515.426 693.222 517.926 692.852 519.13" stroke="#131B24" stroke-width="1.5" stroke-miterlimit="10" stroke-linecap="round" stroke-linejoin="round"/>
<path d="M737.759 499.5C739.333 497.555 741.278 496.537 742.852 497C743.407 497.185 744.333 497.648 745.259 499.87C746.556 503.111 746.37 506.63 745.352 510.796C744.611 513.944 743.037 518.574 739.982 523.852" stroke="#131B24" stroke-width="1.5" stroke-miterlimit="10" stroke-linecap="round" stroke-linejoin="round"/>
<path d="M378.315 302.185C378.315 302.185 385.815 302.092 383.963 311.352C387.482 313.018 389.148 318.481 387.389 321.907C390.352 323.018 391.833 328.111 388.87 331.167C391.926 332.463 392.574 336.259 390.63 337.555C388.685 338.944 376.278 343.296 376.278 343.296C376.278 343.296 374.056 342.555 373.315 340.333C372.574 338.111 375.074 336.167 375.074 336.167C375.074 336.167 371.463 336.074 370.444 333.667C369.426 331.167 369.889 328.481 371.278 327.555C368.407 327.463 367.296 326.074 366.648 324.315C366 322.555 366.093 319.593 368.222 318.389C364.981 318.667 361.37 313.296 363.5 309.778C366.093 308.296 378.315 302.185 378.315 302.185Z" fill="#6E4D41"/>
<path d="M376.278 343.389C375.907 343.296 374.426 342.926 373.685 341.537C372.852 339.963 373.315 337.741 375.074 336.259C372.481 337 369.889 335.518 369.056 333.204C368.407 331.167 369.333 328.852 371.278 327.648C368.778 328.574 366 327.278 365.074 325.056C364.056 322.556 365.444 319.407 368.222 318.574C366.185 318.667 364.333 317.648 363.315 315.981C362.204 314.13 362.296 311.815 363.5 309.963" stroke="#131B24" stroke-width="1.5" stroke-miterlimit="10" stroke-linecap="round" stroke-linejoin="round"/>
<path d="M367.574 318.852C371.278 317.185 374.982 315.426 378.685 313.759" stroke="#131B24" stroke-width="1.5" stroke-miterlimit="10" stroke-linecap="round" stroke-linejoin="round"/>
<path d="M370.722 327.833C374.611 326.63 378.407 325.241 382.111 323.574" stroke="#131B24" stroke-width="1.5" stroke-miterlimit="10" stroke-linecap="round" stroke-linejoin="round"/>
<path d="M389.241 331.074C386.833 331.722 384.426 332.463 382.019 333.204" stroke="#131B24" stroke-width="1.5" stroke-miterlimit="10" stroke-linecap="round" stroke-linejoin="round"/>
<path d="M384.148 311.167C383.5 311.444 382.759 311.722 382.111 312" stroke="#131B24" stroke-width="1.5" stroke-miterlimit="10" stroke-linecap="round" stroke-linejoin="round"/>
<path d="M380.259 300.796C376.463 302.741 372.667 304.685 368.87 306.722" stroke="#131B24" stroke-width="1.5" stroke-miterlimit="10" stroke-linecap="round" stroke-linejoin="round"/>
<path d="M138.315 357.741C144.982 369.315 146.463 380.981 141.648 383.759C136.833 386.537 125.074 380.055 118.407 368.481C111.741 356.907 112.667 344.592 117.482 341.815C122.296 339.037 131.648 346.167 138.315 357.741Z" fill="#131B24"/>
<path d="M120.352 347.741L137.018 330.889C139.611 327.926 143.037 325.889 146.833 324.87C151.648 323.574 158.5 321.907 164.426 320.981C153.222 330.981 151.278 333.667 151.648 334.13C152.296 335.056 160.352 330.148 165.63 326.537C169.518 323.852 172.667 321.352 174.704 319.5C175.074 319.5 177.944 319.685 179.518 322.185C180.907 324.315 180.815 327.185 179.148 329.407C183.315 330.796 183.87 338.944 182.204 341.352C184.796 343.204 185.815 349.037 184.056 352.556C184.704 354.5 186.463 358.296 184.148 361.907C180.167 367.093 171.185 370.519 167.667 371.63C157.481 374.685 153.13 371.537 142.018 377.463C137.481 379.685 117.296 363.389 120.352 347.741Z" fill="#6E4D41"/>
<path d="M91.1852 322.185C85.8148 343.389 80.4444 364.685 75.1667 385.889C88.037 372.463 100.907 358.944 113.778 345.518C113.222 347.278 109.796 358.574 116.37 369.5C124.611 383.204 140.815 383.667 141.741 383.667C123.037 417.648 101.278 437.926 86.6482 449.315C72.0185 460.704 49.8889 477.926 34.9815 470.518C24.8889 465.518 21.9259 451.537 20.4444 439.778C15.7222 402.463 16.463 314.963 53.963 264.037C57.2037 261.722 73.6852 250.148 85.6296 255.611C99.1481 261.815 105.907 289.87 91.1852 322.185Z" fill="#B0CFF8"/>
<path d="M92.5741 316.907C88.963 331.259 85.2593 345.704 81.6482 360.056" stroke="#131B24" stroke-width="1.5" stroke-miterlimit="10" stroke-linecap="round" stroke-linejoin="round"/>
<path d="M117.296 341.537C107.667 351.63 98.037 361.815 88.5 371.907" stroke="#131B24" stroke-width="1.5" stroke-miterlimit="10" stroke-linecap="round" stroke-linejoin="round"/>
<path d="M179.426 329.222C176.556 331.907 173.407 334.222 169.981 336.167" stroke="#131B24" stroke-width="1.5" stroke-miterlimit="10" stroke-linecap="round" stroke-linejoin="round"/>
<path d="M182.481 341.167C180.259 343.204 177.759 344.87 175.074 346.352" stroke="#131B24" stroke-width="1.5" stroke-miterlimit="10" stroke-linecap="round" stroke-linejoin="round"/>
<path d="M184.611 352.278C181.926 354.407 179.056 356.167 176 357.556" stroke="#131B24" stroke-width="1.5" stroke-miterlimit="10" stroke-linecap="round" stroke-linejoin="round"/>
<path d="M121.093 181.907C130.352 205.796 145.815 222.833 158.87 221.537C177.667 219.685 187.759 180.519 190.445 164.315C191.741 156.352 192.019 149.5 191.926 144.222C191.926 140.704 191.093 138.111 189.982 136.074C182.852 123.852 156.37 122.926 123.963 132.833L121.093 181.907Z" fill="#6E4D41"/>
<path d="M142.852 160.426C142.482 160.796 141.463 162 141.833 163.019C142.111 163.667 143.037 164.315 153.13 164.222C157.667 164.222 159.148 164.037 160.445 162.833C161.648 161.722 162.574 159.593 161.833 158.389C161.185 157.278 159.611 157.741 151.093 158.296C146.741 158.482 144.426 158.574 142.852 160.426Z" fill="#131B24"/>
<path d="M189.241 159.222C189.519 159.593 190.259 160.796 189.982 161.722C189.796 162.463 188.963 163.111 181 163.296C177.389 163.389 176.278 163.296 175.259 162.093C174.333 160.982 173.685 158.944 174.333 157.648C174.889 156.537 176.093 156.907 182.852 157.185C186.185 157.463 188.037 157.463 189.241 159.222Z" fill="#131B24"/>
<path d="M148.037 169.315C151.833 170.611 155.63 171.815 159.519 172.926C155.537 174.13 151.556 175.241 147.574 176.445" stroke="#131B24" stroke-width="1.5" stroke-miterlimit="10" stroke-linecap="round" stroke-linejoin="round"/>
<path d="M186.37 168.574C183.13 170.056 179.889 171.537 176.648 173.019C179.611 173.574 182.482 174.037 185.444 174.593" stroke="#131B24" stroke-width="1.5" stroke-miterlimit="10" stroke-linecap="round" stroke-linejoin="round"/>
<path d="M151.463 190.148L169.519 197.463C167.574 204.315 164.148 209.778 160.815 209.778C156.926 209.87 152.296 202.185 151.463 190.148Z" fill="white"/>
<path d="M116.463 177.926C118.87 172.185 120.815 167.556 122.111 164.407C126.37 154.13 127.759 150.241 130.815 143.945C132.945 139.407 134.889 135.889 136.093 133.667C139.241 136.167 150.074 143.945 165.63 143.574C176.556 143.296 184.611 139.037 188.315 136.722L191 157.648C191.648 155.056 192.482 151.167 192.945 146.537C192.945 146.445 192.945 146.352 192.945 146.167C193.5 139.778 192.667 131.167 192.296 129.315C190.63 120.611 170.167 103.759 145.722 105.519C144.241 105.611 117.389 107.926 109.333 126.259C106 133.759 107.111 141.259 108.5 151.537C110.074 163.019 113.593 172 116.463 177.926Z" fill="#131B24"/>
<path d="M124.982 167.463C122.019 162.926 116.648 161.444 112.852 163.296C108.222 165.611 107.944 172.37 109.796 176.537C111.926 181.259 117.482 184.037 123.407 183.111" fill="#6E4D41"/>
<path d="M113.87 165.611C117.482 165.611 121.093 167.37 123.315 170.241" stroke="#131B24" stroke-width="1.5" stroke-miterlimit="10" stroke-linecap="round" stroke-linejoin="round"/>
<path d="M161.185 182.463C162.482 182.185 163.87 182.463 164.982 183.204C165.63 183.667 166.185 184.315 166.926 184.87C168.685 186.167 171.185 186.167 173.037 184.963C174.333 184.13 175.352 182.556 176.833 182.556" stroke="#131B24" stroke-width="1.5" stroke-miterlimit="10" stroke-linecap="round" stroke-linejoin="round"/>
</svg>
