<svg width="1375" height="1310" viewBox="0 0 1375 1310" fill="none" xmlns="http://www.w3.org/2000/svg">
<path d="M910.72 976.095C880.499 1029.22 789.367 1092.27 747.578 1117.15C507.354 1068.04 443.996 883.84 442.345 797.879C607.767 789.684 556.098 594.084 509.586 497.309C632.873 491.201 593.604 338.009 558.559 262.176C652.272 259.098 634.994 120.851 614.641 52.1125C641.913 63.1464 701.383 105.699 721.086 187.637C740.789 269.575 795.597 270.64 820.537 260.931C758.294 551.867 902.471 533.252 982.34 487.578C852.155 733.383 958.246 777.536 1027.56 768.888C965.721 783.684 948.497 909.691 910.72 976.095Z" fill="#536704"/>
<path fill-rule="evenodd" clip-rule="evenodd" d="M763.567 1144C756.879 1147.99 748.945 1149.33 741.319 1147.77C483.645 1095.09 412.966 895.613 411.1 798.481C410.776 781.594 423.929 767.505 440.798 766.669C475.615 764.944 494.416 753.831 505.279 740.935C516.809 727.248 523.358 706.856 524.206 679.833C525.925 625.064 503.741 557.289 481.421 510.848C476.886 501.412 477.377 490.332 482.729 481.334C488.082 472.337 497.584 466.617 508.04 466.099C531.842 464.92 543.35 457.179 549.764 449.152C557.004 440.09 561.693 425.69 562.207 405.111C563.248 363.467 546.832 311.293 530.192 275.287C525.797 265.776 526.46 254.695 531.959 245.776C537.459 236.858 547.061 231.289 557.534 230.945C572.129 230.465 579.773 225.333 585.042 218.55C591.346 210.436 596.217 197.154 598.317 178.309C602.522 140.563 594.256 93.3397 584.677 60.9866C581.27 49.4813 584.752 37.0415 593.636 28.9763C602.52 20.9112 615.238 18.6453 626.361 23.1455C661.234 37.2546 728.998 86.8793 751.47 180.332C759.726 214.665 773.643 226.274 782.417 230.503C792.43 235.33 803.16 234.163 809.201 231.812C819.909 227.643 832.041 229.687 840.792 237.136C849.543 244.584 853.5 256.233 851.096 267.47C835.939 338.317 834.017 387.505 839.203 420.681C844.321 453.417 855.809 467.906 865.717 474.642C876.115 481.712 890.816 484.362 909.904 481.454C928.921 478.557 949.242 470.508 966.827 460.452C978.9 453.548 994.084 455.453 1004.08 465.127C1014.07 474.801 1016.47 489.915 1009.96 502.206C945.396 624.103 946.313 684.319 958.476 710.48C968.927 732.959 994.682 741.5 1023.7 737.88C1040.15 735.826 1055.35 746.99 1058.31 763.311C1061.27 779.631 1050.97 795.422 1034.84 799.282C1029.33 800.599 1022.3 804.911 1013.77 816.597C1005.19 828.345 997.21 844.671 989.109 864.805C983.679 878.3 978.726 892.091 973.579 906.421C970.975 913.669 968.323 921.054 965.534 928.609C957.584 950.145 948.69 972.552 937.883 991.549C919.657 1023.59 885.272 1055.72 853.049 1081.58C819.995 1108.12 785.547 1130.92 763.567 1144ZM987.806 799.171C969.934 824.138 956.827 860.617 943.901 896.594C933.516 925.497 923.249 954.074 910.72 976.097C880.499 1029.22 789.367 1092.27 747.578 1117.15C533.411 1073.37 459.822 922.213 445.207 829.024C444.157 822.327 443.411 815.93 442.94 809.893C442.613 805.709 442.418 801.698 442.345 797.881C591.95 790.47 563.994 629.778 522.875 527.531C518.528 516.721 514.034 506.564 509.586 497.311C521.696 496.711 532.237 494.692 541.368 491.467C614.027 465.802 597.39 363.752 571.088 292.482C567.044 281.523 562.771 271.292 558.559 262.178C570.629 261.781 580.858 259.142 589.477 254.699C635.997 230.711 635.586 154.13 624.511 93.7393C621.708 78.4557 618.222 64.2091 614.641 52.1144C624.389 56.0583 638.251 64.0292 652.94 76.3862C679.346 98.6002 708.425 134.989 721.086 187.639C734.193 242.147 762.836 260.866 787.886 264.432C800.492 266.226 812.188 264.183 820.537 260.933C818.003 272.778 815.811 284.109 813.943 294.947C777.706 505.176 863.338 529.513 937.49 507.101C953.409 502.289 968.799 495.323 982.34 487.58C973.991 503.344 966.613 518.28 960.136 532.425C889.288 687.132 926.081 747.315 976.273 764.35C993.046 770.043 1011.32 770.917 1027.56 768.89C1011.76 772.671 998.87 783.715 987.806 799.171Z" fill="#676E0B"/>
<path fill-rule="evenodd" clip-rule="evenodd" d="M688.634 282.708C697.09 280.986 705.341 286.444 707.064 294.9C728.526 400.262 772.201 646.549 773.783 784.167C773.882 792.796 766.968 799.872 758.339 799.971C749.71 800.07 742.635 793.155 742.535 784.526C740.992 650.27 697.949 406.713 676.443 301.138C674.72 292.682 680.178 284.431 688.634 282.708Z" fill="#617807"/>
<path d="M1053.91 1201.35C909.382 1201.35 737.502 1201.35 671.101 1218.93C624.226 943.539 702.997 808.122 737.502 767.758C773.44 883.383 846.226 736.508 878.127 648.617C931.253 750.179 1055.21 674.008 1110.55 623.227C1126.17 660.336 1164.29 656.506 1204.3 648.617C1238.97 641.781 1309.77 644.711 1342.97 648.617C1253.91 700.18 1268.1 787.289 1286.33 824.398C1137.89 868.148 1150.26 957.211 1175 996.273C995.315 1027.52 1019.4 1146.01 1053.91 1201.35Z" fill="#62780A"/>
<path fill-rule="evenodd" clip-rule="evenodd" d="M654.193 1245.21C646.812 1240.46 641.768 1232.83 640.295 1224.17C592.076 940.889 672.443 795.773 713.75 747.452C721.144 738.802 732.656 734.856 743.803 737.15C754.949 739.444 763.967 747.616 767.345 758.483C769.981 766.965 772.487 772.57 774.482 776.126C777.289 773.729 780.815 770.111 784.954 764.951C808.223 735.946 832.988 681.391 848.753 637.956C852.979 626.313 863.682 618.265 876.04 617.437C888.398 616.61 900.078 623.158 905.819 634.133C915.76 653.138 927.374 661.304 938.547 664.858C950.686 668.719 966.227 668.332 984.944 662.998C1022.96 652.163 1063.58 623.915 1089.42 600.202C1096.91 593.328 1107.28 590.528 1117.21 592.696C1127.15 594.864 1135.41 601.729 1139.35 611.1C1141.33 615.81 1143.36 617.811 1144.76 618.846C1146.3 619.983 1148.81 621.218 1153.32 621.956C1163.59 623.635 1178 621.952 1198.26 617.958C1219.01 613.865 1248.17 612.972 1274.62 613.342C1301.66 613.72 1328.75 615.479 1346.62 617.582C1359.99 619.154 1370.85 629.11 1373.57 642.291C1376.3 655.473 1370.28 668.918 1358.63 675.662C1322.4 696.638 1309.11 723.102 1305.27 746.909C1301.17 772.29 1307.59 796.803 1314.38 810.62C1318.44 818.889 1318.65 828.529 1314.94 836.964C1311.24 845.399 1304 851.769 1295.17 854.374C1226.27 874.68 1202.58 903.033 1194.95 923.175C1186.95 944.247 1192.79 965.947 1201.4 979.553C1206.99 988.369 1207.8 999.39 1203.58 1008.93C1199.35 1018.47 1190.64 1025.27 1180.36 1027.06C1097.17 1041.53 1071.55 1073.81 1064.07 1098.75C1055.53 1127.22 1065.67 1161.14 1080.43 1184.82C1086.43 1194.45 1086.74 1206.59 1081.23 1216.52C1075.72 1226.44 1065.26 1232.6 1053.91 1232.6C981.526 1232.6 902.945 1232.6 834.199 1234.78C764.291 1237 708.293 1241.41 679.099 1249.14C670.614 1251.39 661.575 1249.96 654.193 1245.21ZM769.725 779.425C769.725 779.423 769.757 779.41 769.818 779.389C769.755 779.416 769.725 779.426 769.725 779.425ZM1053.91 1201.35C1048.32 1192.38 1043 1181.75 1038.77 1170.1C1018.61 1114.47 1023.47 1035.61 1143.07 1003.28C1152.92 1000.61 1163.55 998.266 1175 996.274C1169.93 988.266 1165.38 978.157 1162.63 966.767C1152.92 926.62 1165.57 870.565 1256.58 834.572C1265.69 830.968 1275.59 827.564 1286.33 824.399C1282.46 816.516 1278.77 806.378 1276.21 794.804C1268.74 760.976 1270.94 714.88 1306.57 676.985C1316.14 666.805 1328.12 657.217 1342.97 648.617C1330.71 647.175 1313.33 645.866 1294.53 645.132C1262.41 643.879 1226.17 644.306 1204.3 648.617C1176.65 654.068 1149.91 657.581 1130.87 646.99C1122.36 642.253 1115.38 634.695 1110.55 623.227C1103.37 629.819 1095.03 636.838 1085.84 643.841C1032.83 684.233 951.503 724.077 900.383 678.134C892.086 670.676 884.584 660.959 878.128 648.617C874.047 659.862 869.297 672.072 864.04 684.574C833.329 757.611 785.334 840.622 752.511 799.385C747.036 792.507 741.983 782.172 737.503 767.758C731.363 774.941 723.821 785.135 715.834 798.591C680.66 857.857 636.867 980.422 666.261 1187.91C667.697 1198.05 669.307 1208.39 671.102 1218.93C679.669 1216.66 689.992 1214.69 701.786 1212.97C773.974 1202.43 901.256 1201.45 1018.21 1201.36C1030.24 1201.35 1042.17 1201.35 1053.91 1201.35Z" fill="#676E0B"/>
<path fill-rule="evenodd" clip-rule="evenodd" d="M1219.63 703.63C1223.22 711.475 1219.78 720.749 1211.93 724.345C1073 788.025 903.988 905.299 810.886 1073.19C806.701 1080.73 797.191 1083.46 789.644 1079.27C782.097 1075.09 779.372 1065.58 783.557 1058.03C881.081 882.169 1056.6 761.162 1198.91 695.936C1206.76 692.341 1216.03 695.786 1219.63 703.63Z" fill="#738B11"/>
<path d="M416.363 1233.58C544.488 1205.45 730.165 1197.12 806.988 1196.47C825.738 1007.41 745.79 827.328 703.473 760.922C644.098 845.297 583.681 704.932 560.895 624.203C473.395 713.266 366.884 650.896 324.566 608.578C303.082 636.898 275.858 667.134 203.473 645.687C139.334 626.683 64.8008 640.478 31.5977 645.687C114.41 695.687 145.53 814.958 135.113 868.343C299.176 902.718 271.181 999.853 236.676 1044.12C400.738 1037.87 424.827 1167.82 416.363 1233.58Z" fill="#848C13"/>
<path fill-rule="evenodd" clip-rule="evenodd" d="M838.085 1199.55C836.51 1215.44 823.215 1227.58 807.253 1227.72C730.961 1228.36 547.921 1236.69 423.063 1264.1C413.131 1266.28 402.76 1263.49 395.26 1256.63C387.76 1249.76 384.071 1239.67 385.369 1229.59C388.976 1201.56 385.269 1160.63 364.872 1128.66C346.055 1099.16 310.15 1072.6 237.865 1075.35C225.718 1075.81 214.405 1069.19 208.862 1058.37C203.32 1047.55 204.555 1034.5 212.028 1024.91C226.421 1006.45 235.729 981.225 230.184 960.656C225.457 943.12 205.689 915.059 128.705 898.929C111.977 895.424 101.168 879.132 104.441 862.358C108.137 843.419 104.73 806.536 89.239 767.195C73.9827 728.449 49.1104 692.765 15.4452 672.439C4.2019 665.65 -1.59701 652.556 0.932369 639.668C3.46175 626.781 13.7796 616.85 26.7546 614.814C28.7771 614.497 31.0127 614.135 33.4448 613.741C68.5935 608.049 144.799 595.709 212.35 615.724C243.563 624.973 260.352 621.807 270.187 617.341C280.999 612.432 289.154 603.553 299.67 589.691C305.127 582.498 313.428 578.016 322.436 577.401C331.445 576.786 340.279 580.097 346.663 586.481C364.861 604.679 397.068 627.076 432.719 635.187C466.386 642.846 503.39 638.143 538.602 602.303C546.409 594.356 557.856 591.166 568.648 593.93C579.439 596.694 587.943 604.994 590.969 615.714C602.063 655.02 621.651 705.951 643.671 736.008C655.33 751.923 662.93 755.404 664.821 755.741C664.867 755.749 664.899 755.753 664.921 755.755L664.959 755.747C664.998 755.736 665.063 755.717 665.156 755.684C665.337 755.619 665.656 755.487 666.114 755.234C668.067 754.155 672.227 751.023 677.916 742.938C683.914 734.414 693.768 729.441 704.189 729.68C714.609 729.919 724.224 735.338 729.826 744.128C774.492 814.218 857.748 1001.28 838.085 1199.55ZM720.33 789.993C763.77 871.245 823.458 1030.39 806.988 1196.47C736.365 1197.07 573.75 1204.16 448.422 1227.15C437.419 1229.17 426.703 1231.31 416.363 1233.58C417.597 1223.99 418.139 1213.04 417.656 1201.34C415.092 1139.27 383.66 1056.27 273.596 1045.15C262.157 1044 249.869 1043.62 236.675 1044.12C243.464 1035.41 250 1024.66 254.872 1012.74C274.762 964.063 266.899 895.955 135.113 868.343C143.98 822.901 122.751 729.72 65.162 672.16C55.0958 662.099 43.9188 653.126 31.5974 645.687C33.5637 645.378 35.6751 645.04 37.9206 644.68C48.0843 643.05 60.9973 640.979 75.6637 639.265C112.472 634.962 160.324 632.902 203.472 645.687C255.2 661.014 283.865 649.947 303.854 632.047C311.836 624.898 318.435 616.66 324.566 608.578C331.078 615.09 339.111 622.078 348.36 628.915C393.344 662.166 467.114 691.868 534.787 646.127C543.619 640.157 552.347 632.903 560.894 624.203C563.792 634.468 567.297 645.698 571.332 657.306C594.917 725.165 636.574 805.993 680.424 783.019C688.068 779.014 695.779 771.855 703.472 760.922C708.617 768.995 714.318 778.748 720.33 789.993Z" fill="#676E0B"/>
<path fill-rule="evenodd" clip-rule="evenodd" d="M145.426 671.864C147.688 663.537 156.273 658.62 164.601 660.883C297.103 696.883 419.291 776.84 518.568 863.662C617.903 950.533 695.294 1045.15 738.107 1111.86C742.768 1119.12 740.659 1128.79 733.396 1133.45C726.134 1138.11 716.468 1136 711.807 1128.74C670.636 1064.59 595.195 972.189 497.996 887.186C400.741 802.132 282.694 725.351 156.407 691.039C148.08 688.777 143.163 680.192 145.426 671.864Z" fill="#9BA517"/>
<path d="M1014.8 926.66C1014.8 1005.26 951.085 1068.97 872.488 1068.97C793.891 1068.97 730.176 1005.26 730.176 926.66C730.176 848.063 793.891 784.348 872.488 784.348C951.085 784.348 1014.8 848.063 1014.8 926.66Z" fill="#9F2308"/>
<path fill-rule="evenodd" clip-rule="evenodd" d="M1046.05 926.66C1046.05 1022.52 968.344 1100.22 872.488 1100.22C776.632 1100.22 698.926 1022.52 698.926 926.66C698.926 830.804 776.632 753.098 872.488 753.098C968.344 753.098 1046.05 830.804 1046.05 926.66ZM872.488 1068.97C951.085 1068.97 1014.8 1005.26 1014.8 926.66C1014.8 848.063 951.085 784.348 872.488 784.348C793.891 784.348 730.176 848.063 730.176 926.66C730.176 1005.26 793.891 1068.97 872.488 1068.97Z" fill="#741602"/>
<path d="M783.543 1068.98C783.543 1147.57 719.827 1211.29 641.23 1211.29C562.633 1211.29 498.918 1147.57 498.918 1068.98C498.918 990.379 562.633 926.664 641.23 926.664C719.827 926.664 783.543 990.379 783.543 1068.98Z" fill="#BF2200"/>
<path fill-rule="evenodd" clip-rule="evenodd" d="M814.793 1068.98C814.793 1164.83 737.086 1242.54 641.23 1242.54C545.374 1242.54 467.668 1164.83 467.668 1068.98C467.668 973.121 545.374 895.414 641.23 895.414C737.086 895.414 814.793 973.121 814.793 1068.98ZM641.23 1211.29C719.827 1211.29 783.543 1147.57 783.543 1068.98C783.543 990.379 719.827 926.664 641.23 926.664C562.633 926.664 498.918 990.379 498.918 1068.98C498.918 1147.57 562.633 1211.29 641.23 1211.29Z" fill="#8D1D05"/>
<path d="M1064.8 1111.38C1064.8 1203.58 985.909 1278.32 888.592 1278.32C791.276 1278.32 712.385 1203.58 712.385 1111.38C712.385 1019.19 791.276 944.449 888.592 944.449C985.909 944.449 1064.8 1019.19 1064.8 1111.38Z" fill="#DF2D06"/>
<path fill-rule="evenodd" clip-rule="evenodd" d="M1096.05 1111.38C1096.05 1222.41 1001.55 1309.57 888.592 1309.57C775.63 1309.57 681.135 1222.41 681.135 1111.38C681.135 1000.36 775.63 913.199 888.592 913.199C1001.55 913.199 1096.05 1000.36 1096.05 1111.38ZM888.592 1278.32C985.909 1278.32 1064.8 1203.58 1064.8 1111.38C1064.8 1019.19 985.909 944.449 888.592 944.449C791.276 944.449 712.385 1019.19 712.385 1111.38C712.385 1203.58 791.276 1278.32 888.592 1278.32Z" fill="#B32303"/>
<path d="M914.886 1044.31C914.886 1084.79 882.062 1117.62 841.573 1117.62C801.083 1117.62 768.26 1084.79 768.26 1044.31C768.26 1003.82 801.083 970.992 841.573 970.992C882.062 970.992 914.886 1003.82 914.886 1044.31Z" fill="#FC4C14"/>
<path d="M694.523 1026.43C694.523 1069.57 659.546 1104.55 616.398 1104.55C573.251 1104.55 538.273 1069.57 538.273 1026.43C538.273 983.279 573.251 948.301 616.398 948.301C659.546 948.301 694.523 983.279 694.523 1026.43Z" fill="#D6300C"/>
<path d="M844.098 1024.59C844.098 1037.54 833.604 1048.03 820.66 1048.03C807.716 1048.03 797.223 1037.54 797.223 1024.59C797.223 1011.65 807.716 1001.16 820.66 1001.16C833.604 1001.16 844.098 1011.65 844.098 1024.59Z" fill="white"/>
<path d="M621.441 1001.16C621.441 1014.1 610.948 1024.59 598.004 1024.59C585.06 1024.59 574.566 1014.1 574.566 1001.16C574.566 988.212 585.06 977.719 598.004 977.719C610.948 977.719 621.441 988.212 621.441 1001.16Z" fill="#FF8166"/>
</svg>
