<svg width="1281" height="1171" viewBox="0 0 1281 1171" fill="none" xmlns="http://www.w3.org/2000/svg">
<path d="M546.034 285.653C538.505 307.811 515.858 320.153 495.451 313.22C475.043 306.286 464.603 282.702 472.132 260.543C479.66 238.385 502.307 226.043 522.715 232.977C543.122 239.91 553.563 263.494 546.034 285.653Z" fill="#AA208C"/>
<path d="M442.538 303.067C449.574 289.198 465.736 282.612 480.461 287.615L519.35 300.828C534.075 305.831 542.88 320.9 540.01 336.185L520.576 439.671C517.066 458.361 497.816 469.61 479.81 463.492L412.722 440.698C394.716 434.58 386.303 413.932 394.906 396.972L442.538 303.067Z" fill="#F2EC5A"/>
<path fill-rule="evenodd" clip-rule="evenodd" d="M490.515 258.026L529.403 271.239C558.853 281.245 576.464 311.383 570.723 341.952L551.289 445.438C544.269 482.819 505.769 505.316 469.756 493.08L402.669 470.286C366.656 458.05 349.83 416.755 367.036 382.835L414.669 288.93C428.739 261.191 461.065 248.02 490.515 258.026ZM480.461 287.615C465.736 282.612 449.574 289.197 442.538 303.067L394.906 396.972C386.303 413.932 394.716 434.579 412.722 440.697L479.81 463.491C497.816 469.609 517.066 458.361 520.576 439.67L540.01 336.184C542.88 320.9 534.075 305.831 519.35 300.828L480.461 287.615Z" fill="#E654C5"/>
<path fill-rule="evenodd" clip-rule="evenodd" d="M392.515 418.915C395.049 428.696 402.27 437.145 412.723 440.697L479.811 463.491C497.817 469.609 517.067 458.361 520.577 439.67L540.011 336.184C542.882 320.9 534.076 305.831 519.352 300.828L517.358 300.15C518.475 304.472 518.678 309.088 517.808 313.724L498.373 417.21C494.863 435.9 475.613 447.149 457.607 441.031L392.515 418.915Z" fill="#DCD535"/>
<path d="M567.019 748.743C516.37 897.811 348.321 1100.48 238.63 1063.21C128.938 1025.94 119.141 762.846 169.789 613.777C220.438 464.709 353.88 363.893 463.572 401.162C573.264 438.432 617.667 599.674 567.019 748.743Z" fill="#46ECBA"/>
<path fill-rule="evenodd" clip-rule="evenodd" d="M343.14 1078.68C307.156 1096.78 266.979 1105.85 228.575 1092.8C190.171 1079.75 163.832 1048.09 146.328 1011.81C128.714 975.3 118.165 930.478 113.019 883.848C102.745 790.755 113.243 683.061 140.199 603.725C167.418 523.613 217.082 455.661 276.052 412.398C334.805 369.294 406.173 348.657 473.623 371.575C541.074 394.492 585.097 454.335 605.43 524.309C625.838 594.542 623.825 678.685 596.606 758.797C569.65 838.133 512.368 929.931 447.507 997.496C415.019 1031.34 379.348 1060.46 343.14 1078.68ZM238.628 1063.21C348.32 1100.48 516.368 897.812 567.017 748.744C617.665 599.676 573.262 438.433 463.57 401.164C353.878 363.894 220.436 464.71 169.788 613.779C119.139 762.847 128.936 1025.94 238.628 1063.21Z" fill="#19B89B"/>
<path fill-rule="evenodd" clip-rule="evenodd" d="M244.566 1064.99C354.291 1093.26 517.275 895.15 567.018 748.746C617.666 599.678 573.263 438.436 463.571 401.166C441.129 393.541 417.692 391.696 394.174 394.862C402.519 396.143 410.778 398.147 418.906 400.909C528.598 438.178 573.001 599.42 522.353 748.489C479.013 876.047 349.709 1042.85 244.566 1064.99Z" fill="#35DFAC"/>
<path d="M376.164 719.402C362.629 791.691 298.361 896.552 245.167 886.592C191.973 876.632 169.996 755.624 183.531 683.335C197.066 611.045 252.085 555.578 305.279 565.538C358.473 575.497 389.699 647.113 376.164 719.402Z" fill="#6AF9CE"/>
<path fill-rule="evenodd" clip-rule="evenodd" d="M231.565 661.357C244.147 664.394 251.885 677.057 248.848 689.64C244.705 706.8 237.983 752.41 244.63 792.506C246.747 805.276 238.111 817.344 225.341 819.461C212.571 821.578 200.503 812.942 198.386 800.172C190.358 751.743 198.272 699.393 203.282 678.64C206.319 666.057 218.982 658.319 231.565 661.357Z" fill="white"/>
<path d="M491.344 528.128C488.991 535.052 481.345 538.716 474.265 536.31C467.186 533.905 463.354 526.341 465.707 519.417C468.06 512.492 475.706 508.829 482.785 511.234C489.865 513.64 493.697 521.203 491.344 528.128Z" fill="#1BCA96"/>
<path d="M571.206 573.882C569.084 580.129 562.185 583.434 555.798 581.264C549.411 579.094 545.954 572.27 548.077 566.023C550.199 559.775 557.098 556.47 563.485 558.64C569.872 560.81 573.329 567.634 571.206 573.882Z" fill="#1BCA96"/>
<path d="M525.003 574.03C522.881 580.277 515.982 583.583 509.595 581.412C503.208 579.242 499.751 572.419 501.873 566.171C503.996 559.924 510.895 556.619 517.282 558.789C523.669 560.959 527.126 567.783 525.003 574.03Z" fill="#1BCA96"/>
<path d="M577.55 659.483C575.428 665.73 568.529 669.036 562.142 666.866C555.755 664.695 552.298 657.872 554.42 651.624C556.543 645.377 563.441 642.072 569.829 644.242C576.216 646.412 579.673 653.236 577.55 659.483Z" fill="#1BCA96"/>
<path d="M524.759 498.811C522.637 505.059 515.738 508.364 509.351 506.194C502.964 504.024 499.507 497.2 501.629 490.952C503.752 484.705 510.65 481.4 517.038 483.57C523.425 485.74 526.882 492.564 524.759 498.811Z" fill="#1BCA96"/>
<path d="M502.049 454.54C500.527 459.02 495.58 461.391 491 459.834C486.42 458.278 483.94 453.385 485.463 448.905C486.985 444.425 491.932 442.055 496.512 443.611C501.092 445.167 503.571 450.06 502.049 454.54Z" fill="#1BCA96"/>
<path d="M552.493 539.774C549.309 549.143 538.964 554.1 529.385 550.845C519.806 547.591 514.621 537.357 517.804 527.988C520.988 518.619 531.334 513.662 540.913 516.916C550.491 520.171 555.676 530.405 552.493 539.774Z" fill="#1BCA96"/>
<path d="M557.149 623.485C553.966 632.854 543.62 637.811 534.041 634.556C524.462 631.302 519.277 621.068 522.461 611.699C525.644 602.33 535.99 597.373 545.569 600.627C555.148 603.882 560.332 614.116 557.149 623.485Z" fill="#1BCA96"/>
<path d="M883.001 293.641C886.423 314.888 873.335 334.666 853.768 337.819C834.2 340.971 815.563 326.302 812.14 305.056C808.718 283.81 821.806 264.031 841.373 260.879C860.941 257.726 879.578 272.395 883.001 293.641Z" fill="#066060"/>
<path d="M806.442 354.531C806.165 338.982 817.363 325.595 832.717 323.122L865.701 317.808C881.054 315.335 895.89 324.528 900.51 339.378L927.765 426.984C933.414 445.143 921.671 464.095 902.896 467.12L844.292 476.56C825.517 479.585 808.416 465.279 808.077 446.265L806.442 354.531Z" fill="#DCBA41"/>
<path fill-rule="evenodd" clip-rule="evenodd" d="M827.747 292.268L860.731 286.955C891.438 282.008 921.11 300.394 930.349 330.093L957.604 417.7C968.903 454.017 945.416 491.922 907.866 497.971L849.262 507.411C811.711 513.46 777.509 484.848 776.832 446.82L775.197 355.086C774.642 323.988 797.04 297.215 827.747 292.268ZM832.717 323.12C817.363 325.594 806.165 338.98 806.442 354.529L808.077 446.263C808.416 465.277 825.517 479.583 844.292 476.559L902.896 467.118C921.671 464.094 933.414 445.142 927.765 426.983L900.51 339.376C895.89 324.527 881.054 315.334 865.701 317.807L832.717 323.12Z" fill="#078181"/>
<path fill-rule="evenodd" clip-rule="evenodd" d="M817.191 467.774C823.999 474.592 833.888 478.236 844.291 476.561L902.895 467.12C921.67 464.096 933.414 445.143 927.764 426.985L900.51 339.378C895.89 324.528 881.054 315.336 865.7 317.809L865.09 317.907C868.561 321.384 871.251 325.72 872.797 330.69L900.052 418.296C905.701 436.455 893.958 455.407 875.183 458.432L817.191 467.774Z" fill="#B49528"/>
<path d="M1099.43 660.896C1122.45 803.829 1073.16 1040.86 967.986 1057.8C862.809 1074.75 741.575 865.184 718.551 722.252C695.526 579.319 760.55 439.949 865.726 423.006C970.903 406.063 1076.4 517.964 1099.43 660.896Z" fill="#E946EC"/>
<path fill-rule="evenodd" clip-rule="evenodd" d="M1061.61 1026.83C1039.96 1057.33 1010.7 1082.58 972.956 1088.66C935.211 1094.74 899.5 1079.96 869.365 1057.8C839.028 1035.49 810.973 1003.37 786.619 967.552C738.008 896.063 700.017 803.694 687.698 727.221C675.249 649.939 686.4 572.815 715.932 511.773C745.347 450.973 795.025 402.742 860.756 392.153C926.488 381.564 988.799 411.755 1035.82 460.242C1083.03 508.923 1117.83 578.643 1130.28 655.926C1142.6 732.399 1135.54 832.025 1111.84 915.163C1099.96 956.814 1083.41 996.122 1061.61 1026.83ZM967.986 1057.8C1073.16 1040.86 1122.45 803.828 1099.43 660.896C1076.4 517.963 970.903 406.062 865.726 423.005C760.55 439.948 695.526 579.319 718.551 722.251C741.575 865.184 862.809 1074.75 967.986 1057.8Z" fill="#AA0AAD"/>
<path fill-rule="evenodd" clip-rule="evenodd" d="M973.573 1056.69C1074.9 1032.42 1122.04 801.276 1099.43 660.898C1076.41 517.966 970.904 406.065 865.728 423.008C844.209 426.474 824.371 435.065 806.624 447.763C813.958 445.212 821.531 443.284 829.324 442.029C934.501 425.086 1040 536.987 1063.03 679.919C1082.73 802.227 1049.48 993.436 973.573 1056.69Z" fill="#CC38CF"/>
<path d="M931.716 719.226C951.842 783.792 944.767 896.667 897.256 911.476C849.745 926.285 779.788 837.421 759.663 772.855C739.538 708.288 760.363 639.53 807.874 624.721C855.385 609.911 911.591 654.659 931.716 719.226Z" fill="#FB6AFE"/>
<path fill-rule="evenodd" clip-rule="evenodd" d="M788.766 732.491C801.307 729.284 814.073 736.85 817.28 749.391C821.265 764.974 835.356 804.667 857.814 834.116C865.663 844.408 863.682 859.115 853.389 866.965C843.097 874.814 828.39 872.833 820.54 862.541C792.96 826.376 776.768 780.17 771.867 761.005C768.66 748.465 776.226 735.699 788.766 732.491Z" fill="white"/>
<path d="M942.949 514.212C944.018 520.85 939.384 527.117 932.597 528.21C925.811 529.303 919.443 524.809 918.374 518.171C917.304 511.533 921.939 505.266 928.725 504.173C935.511 503.08 941.88 507.574 942.949 514.212Z" fill="#981CC4"/>
<path d="M1027.54 517.006C1028.5 522.995 1024.32 528.649 1018.2 529.635C1012.08 530.621 1006.33 526.566 1005.37 520.578C1004.4 514.589 1008.58 508.935 1014.71 507.949C1020.83 506.962 1026.58 511.017 1027.54 517.006Z" fill="#981CC4"/>
<path d="M990.063 537.022C991.028 543.01 986.847 548.664 980.724 549.651C974.601 550.637 968.856 546.582 967.891 540.593C966.927 534.605 971.108 528.95 977.23 527.964C983.353 526.978 989.098 531.033 990.063 537.022Z" fill="#981CC4"/>
<path d="M1069.55 583.83C1070.52 589.819 1066.33 595.473 1060.21 596.459C1054.09 597.446 1048.34 593.39 1047.38 587.402C1046.41 581.413 1050.6 575.759 1056.72 574.773C1062.84 573.786 1068.59 577.842 1069.55 583.83Z" fill="#981CC4"/>
<path d="M957.473 475.998C958.438 481.987 954.257 487.641 948.134 488.627C942.012 489.614 936.266 485.558 935.301 479.57C934.337 473.581 938.518 467.927 944.641 466.941C950.763 465.954 956.509 470.01 957.473 475.998Z" fill="#981CC4"/>
<path d="M919.969 449.808C920.66 454.103 917.662 458.157 913.271 458.865C908.881 459.572 904.761 456.664 904.069 452.37C903.377 448.075 906.376 444.02 910.766 443.313C915.157 442.606 919.277 445.514 919.969 449.808Z" fill="#981CC4"/>
<path d="M997.633 497.335C999.08 506.316 992.809 514.796 983.627 516.275C974.445 517.754 965.828 511.673 964.381 502.692C962.935 493.71 969.205 485.231 978.388 483.751C987.57 482.272 996.186 488.354 997.633 497.335Z" fill="#981CC4"/>
<path d="M1037.47 563.362C1038.92 572.344 1032.65 580.823 1023.47 582.303C1014.28 583.782 1005.67 577.7 1004.22 568.719C1002.77 559.738 1009.05 551.258 1018.23 549.779C1027.41 548.3 1036.03 554.381 1037.47 563.362Z" fill="#981CC4"/>
<path fill-rule="evenodd" clip-rule="evenodd" d="M50.162 5.23317C55.9014 -1.21101 65.7781 -1.78239 72.2222 3.95696C235.535 149.408 703.152 382.669 1258.74 141.913C1266.66 138.482 1275.86 142.12 1279.29 150.038C1282.72 157.956 1279.09 167.156 1271.17 170.587C701.758 417.331 221.459 178.718 51.4382 27.2934C44.9941 21.554 44.4227 11.6773 50.162 5.23317Z" fill="#45A2D7"/>
<path fill-rule="evenodd" clip-rule="evenodd" d="M50.162 5.23317C55.9014 -1.21101 65.7781 -1.78239 72.2222 3.95696C163.436 85.1943 350.605 194.524 595.503 232.365C604.032 233.682 609.877 241.664 608.559 250.192C607.241 258.721 599.26 264.566 590.731 263.248C339.738 224.466 147.043 112.441 51.4382 27.2934C44.9941 21.554 44.4227 11.6773 50.162 5.23317Z" fill="#69C2F4"/>
</svg>
