<svg width="1161" height="1040" viewBox="0 0 1161 1040" fill="none" xmlns="http://www.w3.org/2000/svg">
<path d="M924.805 166.554C996.265 166.554 1014.13 264.892 1014.13 314.061C1014.13 363.23 985.978 432.434 1050.91 435.228C1118.41 438.132 1128.91 317.339 1128.91 280.089C1128.91 240.848 1128.91 90.4409 971.281 43.025C837.443 2.76648 756.844 80.4447 719.883 177.09L541.232 661.755C532.475 681.072 526.52 724.973 572.759 746.045C618.998 767.117 645.507 738.417 656.83 709.168L782.936 340.401C800.45 282.452 853.345 166.554 924.805 166.554Z" fill="#24E287"/>
<path fill-rule="evenodd" clip-rule="evenodd" d="M812.687 349.979L686.198 719.868L685.973 720.448C678.904 738.708 665.891 760.271 643.829 773.355C619.889 787.552 590.738 788.579 559.8 774.48C527.396 759.712 510.857 735.072 505.726 709.354C501.105 686.189 506.053 664.258 512.258 650.006L690.627 166.103L690.695 165.926C710.701 113.616 743.547 63.5593 792.45 32.3699C842.455 0.477256 905.647 -9.35244 980.284 13.0983C1069.4 39.9035 1115.41 96.9376 1138.16 152.845C1160.17 206.952 1160.17 259.329 1160.16 279.648V280.087C1160.16 300.448 1157.41 343.52 1144.98 382.26C1138.79 401.566 1129.41 422.319 1114.67 438.497C1099.12 455.569 1077.29 467.64 1049.57 466.447C1027.66 465.505 1007.77 458.542 993.946 442.251C980.915 426.898 977.623 408.21 976.954 393.448C976.278 378.549 978.143 362.662 979.723 349.593C979.813 348.849 979.902 348.113 979.99 347.384C981.586 334.205 982.881 323.508 982.881 314.059C982.881 292.195 978.767 259.922 967.621 234.357C956.453 208.743 942.459 197.802 924.806 197.802C906.092 197.802 883.178 214.068 859.577 249.179C837.419 282.142 820.975 322.559 812.85 349.441L812.687 349.979ZM541.233 661.754L719.883 177.089C756.845 80.4434 837.444 2.76522 971.282 43.0238C1128.91 90.4397 1128.91 240.847 1128.91 280.087C1128.91 317.338 1118.41 438.13 1050.91 435.226C1001.06 433.081 1006.08 391.792 1011.09 350.477C1012.61 337.979 1014.13 325.479 1014.13 314.059C1014.13 264.89 996.266 166.552 924.806 166.552C853.346 166.552 800.451 282.451 782.937 340.4L656.83 709.167C645.508 738.416 618.999 767.116 572.76 746.044C526.521 724.971 532.476 681.07 541.233 661.754Z" fill="#16824E"/>
<path fill-rule="evenodd" clip-rule="evenodd" d="M973.184 66.9408C976.866 59.1367 986.178 55.7957 993.983 59.4786C1069.31 95.0279 1102.71 159.445 1113.94 223.703C1125.08 287.465 1114.76 352.271 1101.81 392.815C1099.18 401.036 1090.39 405.572 1082.17 402.947C1073.95 400.322 1069.41 391.53 1072.04 383.309C1083.83 346.38 1093.23 286.772 1083.15 229.082C1073.16 171.887 1044.38 117.815 980.646 87.7397C972.842 84.0569 969.501 74.7449 973.184 66.9408Z" fill="#19CB75"/>
<path fill-rule="evenodd" clip-rule="evenodd" d="M835.809 71.5461C836.949 80.0999 830.939 87.9586 822.386 89.0991C821.145 89.2645 817.63 90.5997 811.863 95.638C806.467 100.352 800.594 106.983 794.665 114.768C783.092 129.962 772.549 147.901 766.281 160.012L571.295 684.524C568.288 692.613 559.293 696.733 551.204 693.726C543.116 690.719 538.996 681.724 542.003 673.635L737.316 148.245C737.53 147.669 737.777 147.106 738.058 146.559C744.868 133.28 756.572 113.208 769.804 95.8334C776.408 87.1628 783.719 78.7303 791.303 72.1044C798.516 65.8023 807.777 59.5204 818.256 58.1232C826.809 56.9827 834.668 62.9924 835.809 71.5461Z" fill="#59F4AA"/>
<path fill-rule="evenodd" clip-rule="evenodd" d="M953.239 123.734C971.246 126.746 988.367 134.245 999.392 147.681C1004.87 154.352 1003.9 164.198 997.224 169.671C990.553 175.145 980.707 174.174 975.233 167.503C970.633 161.897 961.631 156.822 948.083 154.555C934.782 152.33 918.572 153.11 901.804 157.658C868.309 166.744 834.618 190.23 818.205 230.831L818.183 230.886L818.183 230.886L772.284 343.194C769.02 351.182 759.898 355.011 751.909 351.747C743.921 348.482 740.092 339.36 743.357 331.372L789.233 219.118C789.237 219.109 789.24 219.1 789.244 219.09C809.944 167.914 852.418 138.675 893.623 127.498C914.207 121.915 934.985 120.68 953.239 123.734Z" fill="#19CB75"/>
<path fill-rule="evenodd" clip-rule="evenodd" d="M1069.14 374.7C1053.08 376.3 1037.53 381.882 1028.48 386.408C1020.76 390.268 1011.38 387.139 1007.52 379.421C1003.66 371.702 1006.79 362.317 1014.51 358.458C1026.29 352.567 1045.51 345.649 1066.04 343.604C1086.35 341.579 1110.8 344.103 1129.53 360.755C1135.98 366.488 1136.56 376.364 1130.83 382.814C1125.1 389.263 1115.22 389.844 1108.77 384.111C1099.38 375.763 1085.41 373.078 1069.14 374.7Z" fill="#CAFD3A"/>
<path fill-rule="evenodd" clip-rule="evenodd" d="M1069.1 283.64C1048.98 287.077 1031.39 292.882 1021.74 296.978C1013.79 300.348 1004.62 296.64 1001.25 288.696C997.881 280.752 1001.59 271.58 1009.53 268.21C1021.36 263.192 1041.27 256.691 1063.83 252.837C1086.25 249.007 1112.64 247.549 1136.74 253.797C1145.1 255.963 1150.11 264.49 1147.95 272.843C1145.78 281.197 1137.25 286.213 1128.9 284.047C1110.81 279.358 1089.36 280.178 1069.1 283.64Z" fill="#CAFD3A"/>
<path fill-rule="evenodd" clip-rule="evenodd" d="M1105.17 123.279C1106.87 131.74 1101.38 139.972 1092.92 141.664C1075.56 145.136 1057.04 157.141 1040.2 172.486C1023.62 187.59 1010.28 204.453 1003.27 215.046C998.51 222.241 988.815 224.213 981.619 219.45C974.423 214.687 972.452 204.992 977.215 197.796C985.502 185.277 1000.48 166.398 1019.15 149.389C1037.55 132.621 1061.18 116.143 1086.79 111.021C1095.25 109.329 1103.48 114.817 1105.17 123.279Z" fill="#CAFD3A"/>
<path fill-rule="evenodd" clip-rule="evenodd" d="M989.848 37.0472C994.399 44.3792 992.145 54.0121 984.813 58.5629C983.458 59.4038 980.142 62.9769 976.209 72.1775C972.564 80.7065 969.341 91.7661 966.609 104.108C961.159 128.73 958.116 156.352 957.012 174.183C956.478 182.796 949.063 189.346 940.45 188.812C931.838 188.279 925.288 180.864 925.821 172.251C926.996 153.298 930.203 123.987 936.097 97.3549C939.038 84.0706 942.76 70.9236 947.474 59.8949C951.901 49.5378 958.359 38.202 968.333 32.0117C975.665 27.4608 985.298 29.7153 989.848 37.0472Z" fill="#CAFD3A"/>
<path fill-rule="evenodd" clip-rule="evenodd" d="M799.768 51.4779C803.9 43.9022 813.392 41.1106 820.967 45.2429C830.673 50.5371 839.237 60.3838 846.394 70.4273C853.869 80.9161 861.14 93.5586 867.81 106.525C881.162 132.484 892.796 161.109 899.474 179.639C902.4 187.758 898.19 196.711 890.072 199.636C881.953 202.562 873 198.352 870.075 190.234C863.732 172.631 852.612 145.299 840.02 120.819C833.718 108.565 827.22 97.3677 820.945 88.5633C814.353 79.3135 809.188 74.4142 806.003 72.6771C798.428 68.5449 795.636 59.0537 799.768 51.4779Z" fill="#CAFD3A"/>
<path fill-rule="evenodd" clip-rule="evenodd" d="M703.209 160.748C706.319 152.698 715.365 148.694 723.415 151.804C738.341 157.571 761.809 167.997 784.292 180.773C806.133 193.183 829.566 209.185 841.896 226.732C846.857 233.792 845.156 243.538 838.095 248.499C831.035 253.461 821.289 251.759 816.327 244.699C808.345 233.339 790.437 220.207 768.853 207.943C747.912 196.044 725.872 186.255 712.152 180.954C704.103 177.844 700.098 168.798 703.209 160.748Z" fill="#CAFD3A"/>
<path fill-rule="evenodd" clip-rule="evenodd" d="M663.617 286.403C665.828 278.061 674.383 273.092 682.724 275.303C696.761 279.023 718.94 285.913 740.353 294.637C760.998 303.048 783.73 314.241 796.421 327.42C802.407 333.636 802.22 343.527 796.004 349.513C789.788 355.499 779.897 355.312 773.911 349.096C766.289 341.181 749.308 332.029 728.563 323.578C708.586 315.439 687.699 308.951 674.717 305.51C666.376 303.299 661.406 294.744 663.617 286.403Z" fill="#CAFD3A"/>
<path fill-rule="evenodd" clip-rule="evenodd" d="M619.22 411.969C620.038 403.378 627.665 397.078 636.256 397.896C657.858 399.953 711.215 409.45 754.279 431.81C761.938 435.786 764.923 445.218 760.946 452.877C756.97 460.536 747.538 463.521 739.879 459.544C701.693 439.717 652.707 430.854 633.293 429.005C624.703 428.187 618.402 420.559 619.22 411.969Z" fill="#CAFD3A"/>
<path fill-rule="evenodd" clip-rule="evenodd" d="M580.25 508.866C581.487 500.326 589.414 494.406 597.954 495.644C620.982 498.981 677.365 510.464 717.82 530.278C725.57 534.074 728.775 543.434 724.98 551.184C721.184 558.933 711.824 562.139 704.074 558.343C667.967 540.658 615.366 529.744 593.472 526.571C584.932 525.333 579.012 517.407 580.25 508.866Z" fill="#CAFD3A"/>
<path fill-rule="evenodd" clip-rule="evenodd" d="M545.046 609.807C546.087 601.24 553.876 595.14 562.443 596.182C575.286 597.744 596.404 601.567 618.998 608.022C641.438 614.432 666.419 623.739 686.279 636.691C693.507 641.405 695.545 651.086 690.831 658.314C686.117 665.542 676.436 667.581 669.208 662.867C653.131 652.381 631.563 644.111 610.415 638.07C589.422 632.073 569.915 628.571 558.67 627.204C550.104 626.162 544.004 618.373 545.046 609.807Z" fill="#CAFD3A"/>
<path d="M302.862 306.783C220.365 302.622 194.015 415.108 191.152 471.871C188.289 528.634 216.76 610.166 141.635 609.611C63.5474 609.033 58.449 468.972 60.6181 425.968C62.903 380.667 71.661 207.03 256.401 161.469C413.255 122.786 499.033 224.001 538.822 330.879L716.843 900.803C725.828 923.613 730.147 974.641 675.539 996.276C620.932 1017.91 591.999 983.234 580.631 948.808L456.521 515.742C439.675 447.823 385.36 310.944 302.862 306.783Z" fill="#F33624"/>
<path fill-rule="evenodd" clip-rule="evenodd" d="M426.325 523.81L550.762 958.015L550.957 958.606C557.864 979.521 571.133 1004.04 594.597 1019.61C619.879 1036.38 651.758 1039.31 687.05 1025.33C723.84 1010.75 743.295 984.526 750.338 956.629C756.745 931.249 752.457 906.605 746.369 890.516L568.4 320.761L568.108 319.976C546.99 263.251 512.685 205.118 460.018 166.408C406.086 126.768 335.804 109.7 248.918 131.128C146.109 156.483 90.7535 218.518 61.7726 280.596C33.6148 340.912 30.6067 400.603 29.4302 423.949L29.4078 424.394C28.2358 447.629 28.9191 496.958 40.8307 541.733C46.7691 564.055 56.1499 587.805 71.5976 606.577C87.8146 626.284 111.029 640.635 141.404 640.859C165.862 641.04 187.739 634.414 203.439 617.701C218.298 601.884 223.01 581.778 224.599 565.22C226.201 548.525 225.012 530.475 223.945 515.236C223.882 514.326 223.818 513.425 223.756 512.533C222.689 497.36 221.797 484.657 222.362 473.445C223.657 447.78 230.377 410.047 245.124 380.397C259.896 350.698 278.093 336.823 301.288 337.993C325.542 339.216 352.222 361.372 377.53 403.458C401.506 443.327 418.293 491.426 426.19 523.264L426.325 523.81ZM716.843 900.803L538.822 330.879C499.033 224 413.255 122.785 256.401 161.469C71.6611 207.029 62.903 380.667 60.6181 425.968C58.4491 468.972 63.5474 609.033 141.635 609.61C199.312 610.036 195.926 562.077 192.537 514.09C191.512 499.573 190.487 485.054 191.152 471.871C194.015 415.107 220.365 302.622 302.862 306.783C385.36 310.944 439.675 447.822 456.521 515.741L580.631 948.807C591.999 983.233 620.932 1017.91 675.539 996.275C730.147 974.641 725.828 923.613 716.843 900.803Z" fill="#8B150A"/>
<path fill-rule="evenodd" clip-rule="evenodd" d="M374.099 202.521C407.175 223.053 429.763 253.004 444.378 273.531C449.383 280.561 447.742 290.317 440.712 295.322C433.683 300.327 423.926 298.686 418.921 291.656C404.565 271.493 385.004 246.072 357.618 229.071C330.968 212.528 296.193 203.51 249.616 217.483C179.113 238.633 147.802 305.742 141.272 336.61C139.486 345.052 131.195 350.449 122.752 348.663C114.309 346.877 108.913 338.585 110.699 330.142C118.492 293.302 154.889 213.274 240.637 187.551C296.285 170.856 340.287 181.532 374.099 202.521Z" fill="#FF867B"/>
<path fill-rule="evenodd" clip-rule="evenodd" d="M290.247 201.855C270.698 201.568 252.874 204.607 242.9 207.334C234.576 209.609 225.983 204.706 223.707 196.382C221.432 188.058 226.335 179.465 234.659 177.19C247.308 173.732 268.059 170.276 290.705 170.608C313.201 170.938 339.219 175.027 361.076 188.141C368.476 192.581 370.875 202.178 366.435 209.578C361.996 216.978 352.398 219.377 344.998 214.937C329.745 205.786 309.947 202.143 290.247 201.855Z" fill="#FFF5F4"/>
<path fill-rule="evenodd" clip-rule="evenodd" d="M374.507 298.431C402.59 324.078 420.82 359.184 429.579 381.341C432.752 389.366 428.818 398.444 420.793 401.616C412.768 404.789 403.691 400.855 400.518 392.83C392.676 372.995 376.655 342.713 353.434 321.506C330.859 300.891 302.722 289.628 267.265 303.064C227.403 318.17 205.532 352.699 194.969 394.571C184.373 436.573 185.897 483.648 191.236 518.51C192.542 527.04 186.686 535.014 178.156 536.32C169.626 537.627 161.652 531.771 160.346 523.241C154.617 485.837 152.723 434.279 164.669 386.927C176.648 339.443 203.28 293.893 256.191 273.842C305.555 255.136 345.777 272.193 374.507 298.431Z" fill="#BF2112"/>
<path fill-rule="evenodd" clip-rule="evenodd" d="M423.133 201.311C427.573 193.911 437.171 191.512 444.571 195.952C453.558 201.344 462.609 210.143 471.083 220.116C479.736 230.3 488.533 242.602 496.883 255.899C513.538 282.42 529.038 313.897 538.296 342.185L538.334 342.303L538.334 342.303L622.303 605.927L622.318 605.975L724.842 924.286C727.487 932.5 722.973 941.304 714.759 943.949C706.546 946.595 697.742 942.081 695.097 933.867L592.557 615.507L592.542 615.459L508.577 351.847C500.254 326.438 485.978 297.296 470.419 272.518C462.656 260.156 454.729 249.13 447.269 240.351C439.629 231.359 433.177 225.559 428.493 222.748C421.093 218.309 418.694 208.711 423.133 201.311Z" fill="#BF2112"/>
<path fill-rule="evenodd" clip-rule="evenodd" d="M208.155 490.436C210.944 498.602 206.584 507.483 198.417 510.271C130.501 533.462 76.0924 520.545 55.1011 509.242C47.5031 505.151 44.6603 495.675 48.7515 488.077C52.8427 480.479 62.3187 477.636 69.9167 481.727C82.7795 488.653 128.111 501.257 188.319 480.698C196.486 477.909 205.366 482.269 208.155 490.436Z" fill="#FCE04E"/>
<path fill-rule="evenodd" clip-rule="evenodd" d="M62.8121 327.59C68.7038 321.285 78.5913 320.95 84.8965 326.841C103.947 344.642 154.206 382.224 202.424 392.299C210.871 394.064 216.288 402.343 214.523 410.79C212.758 419.237 204.48 424.654 196.033 422.888C139.564 411.089 84.2241 368.983 63.5607 349.674C57.2555 343.783 56.9203 333.895 62.8121 327.59Z" fill="#FCE04E"/>
<path fill-rule="evenodd" clip-rule="evenodd" d="M153.885 191.725C162.002 188.796 170.956 193.002 173.885 201.119C179.297 216.118 189.9 240.645 203.826 264.613C217.976 288.967 234.49 310.862 251.156 322.528C258.226 327.477 259.945 337.219 254.996 344.289C250.047 351.358 240.305 353.078 233.235 348.129C210.838 332.451 191.545 305.681 176.806 280.312C161.841 254.557 150.471 228.302 144.49 211.725C141.561 203.608 145.767 194.654 153.885 191.725Z" fill="#FCE04E"/>
<path fill-rule="evenodd" clip-rule="evenodd" d="M301.179 143.273C309.089 146.724 312.703 155.934 309.251 163.843C302.747 178.748 289.622 230.804 298.721 305.109C299.77 313.674 293.676 321.468 285.111 322.517C276.545 323.566 268.751 317.472 267.702 308.907C258.051 230.087 271.488 172.247 280.609 151.345C284.061 143.435 293.27 139.822 301.179 143.273Z" fill="#FCE04E"/>
<path fill-rule="evenodd" clip-rule="evenodd" d="M459.773 193.199C461.142 201.719 455.345 209.736 446.825 211.105C439.872 212.223 431.648 216.471 422.44 224.438C413.358 232.296 404.315 242.908 395.761 254.964C378.645 279.087 364.731 307.215 357.257 325.589C354.005 333.582 344.889 337.426 336.896 334.175C328.903 330.923 325.058 321.807 328.31 313.814C336.461 293.776 351.453 263.408 370.275 236.881C379.689 223.611 390.373 210.859 401.994 200.805C413.489 190.86 426.944 182.649 441.867 180.251C450.387 178.882 458.404 184.679 459.773 193.199Z" fill="#FCE04E"/>
<path fill-rule="evenodd" clip-rule="evenodd" d="M468.872 366.745C447.212 380.359 429.356 396.732 419.819 407.313C414.041 413.723 404.161 414.235 397.751 408.457C391.342 402.68 390.829 392.8 396.607 386.39C407.903 373.859 427.938 355.564 452.242 340.288C476.336 325.143 506.328 311.891 537.119 311.891C545.749 311.891 552.744 318.886 552.744 327.516C552.744 336.145 545.749 343.141 537.119 343.141C514.786 343.141 490.741 353 468.872 366.745Z" fill="#FCE04E"/>
<path fill-rule="evenodd" clip-rule="evenodd" d="M509.856 479.653C484.704 481.322 459.985 487.085 445.194 491.812C436.974 494.439 428.181 489.905 425.554 481.685C422.927 473.465 427.461 464.672 435.681 462.045C452.466 456.681 479.7 450.335 507.787 448.472C535.154 446.656 566.836 448.827 589.666 463.885C596.869 468.637 598.857 478.328 594.106 485.532C589.355 492.735 579.663 494.723 572.46 489.972C558.571 480.811 535.728 477.937 509.856 479.653Z" fill="#FCE04E"/>
<path fill-rule="evenodd" clip-rule="evenodd" d="M547.454 616.877C520.636 614.409 495.035 615.126 479.953 616.511C471.36 617.3 463.754 610.974 462.965 602.381C462.176 593.787 468.502 586.181 477.096 585.392C493.915 583.848 521.439 583.1 550.318 585.759C578.834 588.384 610.582 594.485 634.55 607.801C642.094 611.992 644.811 621.504 640.621 629.048C636.43 636.591 626.917 639.309 619.374 635.118C601.155 624.997 574.634 619.379 547.454 616.877Z" fill="#FCE04E"/>
<path fill-rule="evenodd" clip-rule="evenodd" d="M592.928 761.084C564.167 757.871 536.13 759.007 519.438 760.998C510.869 762.02 503.094 755.902 502.072 747.333C501.05 738.764 507.168 730.99 515.737 729.968C534.527 727.727 564.986 726.519 596.397 730.028C627.356 733.486 661.716 741.78 686.216 760.382C693.089 765.6 694.43 775.402 689.212 782.275C683.993 789.148 674.191 790.489 667.319 785.271C649.631 771.841 622.142 764.348 592.928 761.084Z" fill="#FCE04E"/>
<path fill-rule="evenodd" clip-rule="evenodd" d="M647.679 913.912C618.565 904.625 585.569 902.597 564.273 903.669C555.654 904.103 548.315 897.468 547.881 888.85C547.447 880.231 554.082 872.893 562.701 872.459C586.652 871.252 623.577 873.423 657.175 884.14C690.256 894.691 724.526 915.085 734.824 953.338C737.068 961.67 732.132 970.244 723.799 972.488C715.466 974.731 706.892 969.795 704.649 961.462C698.541 938.777 677.31 923.363 647.679 913.912Z" fill="#FCE04E"/>
</svg>
