<svg width="1499" height="1500" viewBox="0 0 1499 1500" fill="none" xmlns="http://www.w3.org/2000/svg">
<path d="M1381.03 1113.81C1373.64 1126.57 1361.49 1135.87 1347.25 1139.68C1333.01 1143.49 1317.84 1141.5 1305.07 1134.14L1187.54 1066.41L1206.39 1136.6C1210.16 1150.85 1208.13 1166.01 1200.74 1178.76C1193.35 1191.52 1181.21 1200.81 1166.99 1204.62C1152.76 1208.43 1137.6 1206.43 1124.84 1199.06C1112.09 1191.7 1102.77 1179.57 1098.93 1165.34L1051.31 987.919L914.104 908.876L835.947 863.847C832.834 862.052 829.303 861.108 825.71 861.11C822.117 861.112 818.588 862.06 815.477 863.859C812.365 865.658 809.782 868.244 807.985 871.358C806.188 874.472 805.241 878.005 805.24 881.601V1129.69L935.386 1259.59C945.745 1270.04 951.541 1284.17 951.502 1298.89C951.463 1313.61 945.592 1327.71 935.177 1338.1C924.763 1348.49 910.655 1354.33 895.948 1354.32C881.242 1354.32 867.138 1348.47 856.73 1338.08L805.24 1286.69V1422.13C805.194 1436.86 799.315 1450.98 788.889 1461.38C778.464 1471.78 764.343 1477.62 749.622 1477.62C734.901 1477.62 720.78 1471.78 710.354 1461.38C699.929 1450.98 694.049 1436.86 694.004 1422.13V1286.69L643.45 1337.17C622.901 1357.65 589.823 1360.08 567.576 1341.44C561.642 1336.52 556.802 1330.41 553.366 1323.5C549.93 1316.6 547.975 1309.05 547.625 1301.34C547.274 1293.63 548.538 1285.94 551.333 1278.75C554.129 1271.56 558.395 1265.03 563.858 1259.59L694.004 1129.69V881.601C694.002 878.005 693.056 874.472 691.259 871.358C689.462 868.244 686.878 865.658 683.767 863.859C680.656 862.06 677.126 861.112 673.533 861.11C669.94 861.108 666.409 862.052 663.296 863.847L447.938 987.919L400.311 1165.34C396.469 1179.56 387.149 1191.68 374.393 1199.04C361.638 1206.4 346.488 1208.39 332.265 1204.59C318.042 1200.78 305.907 1191.49 298.518 1178.75C291.13 1166 289.092 1150.85 292.852 1136.6L311.703 1066.41L194.174 1134.14C187.866 1137.79 180.9 1140.17 173.674 1141.13C166.449 1142.09 159.105 1141.62 152.062 1139.74C145.019 1137.86 138.415 1134.61 132.627 1130.18C126.839 1125.74 121.98 1120.21 118.328 1113.9C114.676 1107.58 112.303 1100.61 111.343 1093.38C110.383 1086.15 110.856 1078.8 112.734 1071.75C114.612 1064.7 117.859 1058.09 122.29 1052.3C126.72 1046.51 132.248 1041.64 138.556 1037.99L256.085 970.282L185.744 951.474C178.693 949.596 172.082 946.344 166.289 941.904C160.496 937.465 155.635 931.925 151.985 925.603C148.334 919.28 145.965 912.299 145.015 905.059C144.064 897.819 144.55 890.463 146.444 883.411C148.338 876.359 151.604 869.751 156.054 863.964C160.504 858.177 166.051 853.326 172.377 849.688C178.703 846.05 185.685 843.697 192.921 842.763C200.157 841.83 207.506 842.334 214.548 844.247L392.32 891.767L607.532 767.783C610.656 765.984 613.25 763.393 615.054 760.271C616.858 757.149 617.808 753.606 617.808 749.999C617.808 746.393 616.858 742.85 615.054 739.728C613.25 736.606 610.656 734.015 607.532 732.216L392.32 608.232L214.548 655.751C207.507 657.662 200.16 658.163 192.925 657.228C185.691 656.292 178.712 653.938 172.388 650.3C166.064 646.662 160.519 641.811 156.071 636.025C151.623 630.239 148.358 623.632 146.464 616.582C144.57 609.532 144.084 602.177 145.034 594.939C145.984 587.701 148.351 580.721 152 574.4C155.648 568.078 160.507 562.539 166.297 558.099C172.087 553.659 178.696 550.405 185.744 548.525L256.085 529.716L138.556 462.011C125.816 454.63 116.527 442.485 112.734 428.25C108.941 414.014 110.953 398.853 118.328 386.103C125.704 373.352 137.838 364.056 152.062 360.26C166.286 356.463 181.434 358.477 194.174 365.859L311.703 433.593L292.852 363.398C289.082 349.149 291.114 333.985 298.501 321.233C305.888 308.48 318.027 299.182 332.256 295.376C346.485 291.571 361.641 293.569 374.399 300.933C387.158 308.297 396.477 320.426 400.312 334.658L447.938 512.08L663.296 636.152C666.41 637.947 669.94 638.891 673.533 638.889C677.126 638.887 680.656 637.939 683.767 636.14C686.878 634.341 689.462 631.755 691.259 628.641C693.056 625.526 694.002 621.994 694.004 618.398V370.312L563.858 240.41C558.395 234.966 554.129 228.441 551.333 221.251C548.538 214.061 547.274 206.366 547.624 198.659C547.974 190.952 549.93 183.403 553.366 176.497C556.801 169.59 561.641 163.479 567.575 158.554C589.823 139.921 622.9 142.353 643.45 162.831L694.004 213.31V77.8705C694.052 63.1387 699.932 49.0267 710.358 38.6266C720.783 28.2266 734.902 22.3867 749.622 22.3867C764.341 22.3867 778.461 28.2266 788.886 38.6266C799.311 49.0267 805.192 63.1387 805.24 77.8705V213.31L855.793 162.831C876.343 142.353 909.42 139.921 931.668 158.554C937.602 163.479 942.442 169.59 945.878 176.497C949.313 183.403 951.269 190.952 951.619 198.659C951.969 206.366 950.706 214.061 947.91 221.251C945.115 228.441 940.849 234.966 935.386 240.41L805.24 370.312V618.398C805.241 621.994 806.188 625.526 807.985 628.641C809.782 631.755 812.365 634.341 815.477 636.14C818.588 637.939 822.117 638.887 825.71 638.889C829.303 638.891 832.834 637.947 835.947 636.152L1051.31 512.079L1098.93 334.657C1102.77 320.426 1112.09 308.297 1124.84 300.933C1137.6 293.569 1152.76 291.571 1166.99 295.376C1181.22 299.182 1193.36 308.48 1200.74 321.232C1208.13 333.984 1210.16 349.148 1206.39 363.398L1187.54 433.593L1305.07 365.859C1311.38 362.204 1318.34 359.828 1325.57 358.867C1332.79 357.907 1340.14 358.38 1347.18 360.26C1354.22 362.14 1360.83 365.389 1366.62 369.824C1372.4 374.258 1377.26 379.789 1380.92 386.103C1384.57 392.416 1386.94 399.388 1387.9 406.619C1388.86 413.851 1388.39 421.201 1386.51 428.25C1384.63 435.298 1381.38 441.908 1376.95 447.701C1372.52 453.493 1367 458.356 1360.69 462.011L1243.16 529.716L1313.5 548.525C1320.55 550.405 1327.16 553.659 1332.95 558.099C1338.74 562.539 1343.6 568.078 1347.24 574.4C1350.89 580.721 1353.26 587.701 1354.21 594.939C1355.16 602.177 1354.67 609.532 1352.78 616.582C1350.89 623.632 1347.62 630.239 1343.17 636.025C1338.72 641.811 1333.18 646.662 1326.86 650.3C1320.53 653.938 1313.55 656.292 1306.32 657.228C1299.08 658.163 1291.74 657.662 1284.7 655.751L1106.92 608.232L1093.46 615.995L891.711 732.216C888.588 734.015 885.994 736.606 884.19 739.728C882.386 742.85 881.436 746.393 881.436 749.999C881.436 753.606 882.386 757.149 884.19 760.271C885.994 763.393 888.588 765.984 891.711 767.783L984.417 821.191L1106.92 891.767L1284.7 844.247C1291.74 842.323 1299.1 841.811 1306.34 842.738C1313.58 843.665 1320.57 846.015 1326.9 849.652C1333.24 853.289 1338.79 858.141 1343.25 863.932C1347.7 869.722 1350.97 876.335 1352.87 883.393C1354.76 890.45 1355.25 897.813 1354.3 905.059C1353.34 912.304 1350.97 919.29 1347.31 925.615C1343.65 931.941 1338.78 937.481 1332.98 941.919C1327.18 946.356 1320.56 949.603 1313.5 951.474L1243.16 970.283L1360.69 1037.99C1367.01 1041.62 1372.55 1046.46 1377 1052.24C1381.44 1058.02 1384.71 1064.62 1386.6 1071.67C1388.49 1078.71 1388.97 1086.06 1388.01 1093.29C1387.06 1100.52 1384.69 1107.5 1381.03 1113.81Z" fill="#C4E2FF"/>
<path d="M1269.59 592.471C1283.15 596.085 1294.83 604.709 1302.28 616.605C1309.73 628.5 1312.4 642.782 1309.74 656.567C1322.07 654.203 1333.23 647.719 1341.39 638.177C1349.55 628.635 1354.24 616.602 1354.68 604.047C1355.11 591.493 1351.28 579.162 1343.8 569.075C1336.31 558.988 1325.63 551.742 1313.5 548.525L1265.27 535.629L1234.25 553.502C1231.38 555.15 1229.08 557.611 1227.61 560.573C1226.15 563.536 1225.6 566.866 1226.03 570.142C1226.46 573.418 1227.85 576.492 1230.03 578.976C1232.21 581.46 1235.07 583.241 1238.26 584.093L1269.59 592.471ZM572.908 787.73L392.32 891.768L214.548 844.248C200.313 840.423 185.144 842.409 172.372 849.77C159.6 857.131 150.269 869.265 146.43 883.506C146.083 884.796 145.847 886.087 145.595 887.378C153.896 885.734 162.462 886.013 170.639 888.193L348.411 935.713L563.624 811.729C567.683 809.398 570.82 805.742 572.51 801.374C574.2 797.006 574.341 792.19 572.908 787.73ZM705.713 66.3281C720.44 66.3065 734.572 72.14 745.003 82.5457C755.432 92.9514 761.306 107.077 761.331 121.816V215.677C761.331 219.087 762.341 222.42 764.233 225.256C766.125 228.093 768.815 230.304 771.962 231.611C775.109 232.917 778.573 233.261 781.916 232.599C785.258 231.937 788.329 230.298 790.742 227.889L811.885 206.777C832.434 186.299 865.512 183.867 887.759 202.5C893.585 207.338 898.356 213.323 901.776 220.082C905.196 226.842 907.192 234.233 907.641 241.796C908.09 249.36 906.981 256.935 904.384 264.052C901.787 271.169 897.758 277.676 892.544 283.171L935.386 240.41C940.849 234.967 945.115 228.441 947.911 221.251C950.706 214.062 951.969 206.366 951.619 198.659C951.269 190.952 949.314 183.403 945.878 176.497C942.442 169.591 937.602 163.479 931.668 158.555C909.421 139.922 876.343 142.353 855.794 162.832L805.24 213.311V77.871C805.195 64.0509 800.016 50.7415 790.709 40.5318C781.402 30.3221 768.633 23.9423 754.887 22.6332C741.14 21.3242 727.398 25.1796 716.335 33.4495C705.271 41.7193 697.677 53.8124 695.029 67.3761C698.548 66.685 702.126 66.334 705.713 66.3281ZM1110.76 337.5C1119.09 337.807 1127.26 339.986 1134.64 343.877C1142.02 347.768 1148.43 353.271 1153.4 359.979C1158.36 366.686 1161.76 374.426 1163.33 382.625C1164.9 390.824 1164.61 399.272 1162.48 407.344L1154.08 438.644C1153.22 441.831 1153.33 445.201 1154.39 448.328C1155.44 451.454 1157.4 454.197 1160.02 456.209C1162.63 458.22 1165.78 459.411 1169.07 459.631C1172.37 459.85 1175.65 459.088 1178.51 457.441L1261.16 409.805C1273.93 402.445 1289.1 400.453 1303.34 404.264C1317.58 408.075 1329.73 417.378 1337.12 430.137C1340.8 436.464 1343.18 443.46 1344.13 450.716C1345.08 457.973 1344.57 465.346 1342.64 472.406L1360.69 462.012C1367 458.357 1372.52 453.494 1376.95 447.701C1381.38 441.908 1384.63 435.299 1386.51 428.25C1388.39 421.202 1388.86 413.852 1387.9 406.62C1386.94 399.388 1384.57 392.417 1380.92 386.103C1377.26 379.79 1372.4 374.258 1366.62 369.824C1360.83 365.39 1354.22 362.14 1347.18 360.26C1340.14 358.38 1332.8 357.907 1325.57 358.868C1318.34 359.829 1311.38 362.204 1305.07 365.859L1187.54 433.594L1206.39 363.398C1210.16 349.15 1208.12 333.989 1200.74 321.24C1193.35 308.49 1181.21 299.194 1166.98 295.389C1152.76 291.584 1137.6 293.581 1124.85 300.943C1112.09 308.304 1102.77 320.429 1098.93 334.658L1097.88 338.581C1102.12 337.719 1106.44 337.357 1110.76 337.5ZM780.321 395.303C774.302 401.311 769.526 408.449 766.267 416.308C763.008 424.166 761.331 432.591 761.331 441.1V662.344C761.332 665.94 762.279 669.472 764.076 672.586C765.873 675.701 768.457 678.287 771.568 680.086C774.679 681.885 778.208 682.833 781.802 682.835C785.395 682.837 788.925 681.893 792.039 680.098L990.054 566.017C995.552 562.85 1000.37 558.629 1004.24 553.595C1008.11 548.562 1010.94 542.815 1012.59 536.684L1013.32 533.966L835.948 636.152C832.834 637.948 829.304 638.891 825.71 638.889C822.117 638.887 818.588 637.939 815.477 636.14C812.365 634.342 809.782 631.755 807.985 628.641C806.188 625.527 805.241 621.995 805.24 618.398V370.431L780.321 395.303ZM1313.5 951.475C1320.55 949.596 1327.16 946.343 1332.95 941.904C1338.74 937.464 1343.61 931.925 1347.26 925.602C1350.91 919.28 1353.27 912.3 1354.22 905.06C1355.17 897.821 1354.69 890.464 1352.79 883.413C1350.9 876.362 1347.64 869.754 1343.19 863.967C1338.74 858.181 1333.19 853.329 1326.86 849.691C1320.54 846.053 1313.56 843.7 1306.32 842.766C1299.09 841.832 1291.74 842.335 1284.7 844.248L1106.92 891.768L984.417 821.191L891.711 767.783C887.263 765.245 883.944 761.11 882.426 756.216L847.802 776.162C844.679 777.961 842.085 780.552 840.281 783.674C838.477 786.796 837.527 790.339 837.527 793.945C837.527 797.552 838.477 801.095 840.281 804.217C842.085 807.339 844.679 809.93 847.802 811.729L940.508 865.137L1043.23 924.313C1055.9 931.614 1070.95 933.593 1085.07 929.816L1240.79 888.193C1255.02 884.368 1270.19 886.354 1282.96 893.715C1295.73 901.076 1305.07 913.21 1308.9 927.451C1311.1 935.622 1311.38 944.189 1309.72 952.485L1313.5 951.475ZM150.265 409.805L206.507 442.218C211.529 445.113 217.297 446.452 223.08 446.066C228.863 445.681 234.402 443.588 238.997 440.053C243.592 436.517 247.036 431.697 248.894 426.203C250.753 420.708 250.941 414.786 249.437 409.184L248.943 407.344C247.98 403.761 247.378 400.091 247.146 396.388L194.174 365.859C186.507 361.407 177.885 358.857 169.031 358.423C160.177 357.989 151.348 359.683 143.283 363.365C135.218 367.046 128.151 372.607 122.673 379.582C117.195 386.558 113.467 394.745 111.799 403.458C124.966 400.847 138.632 403.102 150.265 409.805ZM805.24 1129.69V915.399L792.039 907.793C788.925 905.998 785.395 905.054 781.802 905.056C778.208 905.058 774.679 906.006 771.568 907.805C768.457 909.603 765.873 912.19 764.076 915.304C762.279 918.418 761.332 921.951 761.331 925.547V1144.5C761.331 1153.74 763.151 1162.88 766.688 1171.41C770.224 1179.94 775.407 1187.68 781.94 1194.2L891.477 1303.54C897.911 1309.94 902.67 1317.83 905.336 1326.51C908.001 1335.18 908.49 1344.39 906.759 1353.3C916.637 1351.38 925.807 1346.81 933.285 1340.07C940.764 1333.33 946.269 1324.69 949.211 1315.05C952.153 1305.42 952.42 1295.17 949.985 1285.4C947.549 1275.63 942.503 1266.71 935.386 1259.59L805.24 1129.69ZM650.095 1173.51L563.858 1259.59C563.476 1259.97 563.157 1260.39 562.79 1260.77L650.095 1173.63V1173.51ZM397.72 1055.37L357.463 1205.34C367.621 1203.33 377.016 1198.52 384.587 1191.46C392.159 1184.39 397.605 1175.34 400.311 1165.34L442.016 1009.98L425.102 1019.72C418.422 1023.57 412.565 1028.7 407.866 1034.82C403.168 1040.93 399.72 1047.92 397.72 1055.37ZM779.587 1348.85C778.089 1347.36 776.183 1346.34 774.108 1345.93C772.033 1345.52 769.883 1345.73 767.929 1346.55C765.976 1347.36 764.307 1348.73 763.132 1350.49C761.958 1352.25 761.331 1354.32 761.331 1356.44V1466.07C761.323 1469.6 760.98 1473.11 760.306 1476.57C772.942 1474.12 784.333 1467.35 792.53 1457.42C800.727 1447.48 805.22 1435.01 805.24 1422.13V1374.46L779.587 1348.85ZM599.541 206.777L620.684 227.889C623.096 230.298 626.168 231.937 629.51 232.599C632.853 233.261 636.317 232.917 639.464 231.611C642.611 230.304 645.301 228.093 647.193 225.256C649.085 222.42 650.095 219.087 650.095 215.677V169.467L643.45 162.832C622.901 142.353 589.823 139.922 567.576 158.555C557.688 166.776 550.979 178.194 548.608 190.839C557.753 189.193 567.16 189.783 576.027 192.558C584.895 195.333 592.962 200.211 599.541 206.777ZM356.402 378.603L404.029 556.026L619.387 680.098C622.501 681.893 626.031 682.837 629.624 682.835C633.217 682.833 636.747 681.885 639.858 680.086C642.969 678.287 645.553 675.701 647.35 672.587C649.147 669.472 650.093 665.94 650.095 662.344V628.547L447.938 512.08L400.311 334.658C397.03 322.516 389.737 311.845 379.621 304.381C369.505 296.918 357.162 293.102 344.603 293.556C332.043 294.01 320.007 298.707 310.456 306.881C300.904 315.055 294.399 326.226 292.001 338.573C305.804 335.856 320.123 338.476 332.073 345.904C344.023 353.332 352.717 365.016 356.402 378.603ZM1360.69 1037.99L1279.98 991.493C1276.65 993.142 1273.17 994.458 1269.59 995.42L1236.87 1004.17C1233.79 1004.99 1231.03 1006.71 1228.93 1009.1C1226.83 1011.5 1225.49 1014.46 1225.07 1017.62C1224.66 1020.78 1225.19 1023.99 1226.6 1026.85C1228.01 1029.71 1230.24 1032.08 1232.99 1033.67L1316.78 1081.93C1326.78 1087.69 1334.73 1096.42 1339.53 1106.92C1344.33 1117.42 1345.73 1129.15 1343.54 1140.49C1354.64 1138.35 1364.82 1132.87 1372.72 1124.78C1380.62 1116.68 1385.85 1106.36 1387.72 1095.21C1389.58 1084.05 1388 1072.58 1383.16 1062.36C1378.33 1052.13 1370.49 1043.63 1360.69 1037.99Z" fill="#B3DAFE"/>
</svg>
