<svg width="48" height="48" viewBox="0 0 48 48" fill="none" xmlns="http://www.w3.org/2000/svg">
<path d="M11.178 38.4377C16.8812 39.0822 23.2058 42.9714 40.0156 37.5354C40.0156 37.5354 43.2112 33.5694 38.0141 29.3013C38.0141 29.3013 36.6821 27.8133 36.7908 25.2721L31.1382 19.9328C31.1382 19.9328 33.9398 18.6231 32.258 17.0943C30.5762 15.5654 24.1855 9.42175 24.1855 9.42175L15.3116 17.9816C15.3116 17.9816 13.3814 18.5689 17.46 20.3573C17.46 20.3573 11.9639 23.4781 11.3915 26.6265L11.7039 28.7079L7.78257 33.3824C6.63917 35.4011 7.98323 38.0772 11.178 38.4377Z" fill="#68BA39"/>
<path d="M17.4339 16.1993C17.4339 16.1993 26.7152 20.1954 31.7653 19.3404C31.7653 19.3404 19.5854 14.817 19.5983 14.0655C19.6111 13.3139 17.4339 16.1993 17.4339 16.1993Z" fill="#389639"/>
<path d="M13.885 22.5109C13.885 22.5109 27.1284 30.6015 36.1879 28.1304C36.1879 28.1304 18.0229 24.527 17.1764 20.6027C17.0178 19.8679 13.885 22.5109 13.885 22.5109Z" fill="#389639"/>
<path d="M8.62831 31.668C8.62831 31.668 26.2296 39.793 40.5868 36.2687C40.5868 36.2687 17.4343 34.7793 12.6382 29.4366C12.1127 28.8518 8.62831 31.668 8.62831 31.668Z" fill="#389639"/>
<path d="M24.3491 21.5984C22.614 21.5984 18.8632 20.8766 16.0221 20.2707C15.7005 20.2022 15.4034 20.048 15.1621 19.8246C14.9208 19.6012 14.7443 19.3167 14.6513 19.0013C14.5583 18.6859 14.5521 18.3512 14.6335 18.0326C14.7149 17.714 14.8809 17.4233 15.1138 17.1911L23.9546 8.38254C24.0593 8.27824 24.2011 8.21967 24.3489 8.21967C24.4966 8.21967 24.6384 8.27824 24.7431 8.38254L33.1852 16.7941C33.4575 17.0654 33.6514 17.4052 33.7463 17.7777C33.8412 18.1502 33.8335 18.5415 33.7241 18.91C33.6147 19.2784 33.4076 19.6105 33.1248 19.8708C32.842 20.1312 32.4941 20.3102 32.1178 20.3889C29.4821 20.9406 25.9961 21.5984 24.3491 21.5984ZM24.3491 9.56718L15.9027 17.9826C15.8122 18.0727 15.7477 18.1856 15.7161 18.3093C15.6844 18.433 15.6867 18.5629 15.7228 18.6854C15.7589 18.8079 15.8274 18.9184 15.9211 19.0052C16.0148 19.0919 16.1302 19.1518 16.255 19.1784C20.197 20.0185 23.0712 20.4813 24.3491 20.4813C25.5586 20.4813 28.2365 20.0602 31.8892 19.2953C32.0683 19.258 32.234 19.173 32.3686 19.0492C32.5033 18.9254 32.602 18.7675 32.6542 18.5922C32.7064 18.4169 32.7102 18.2307 32.6651 18.0534C32.6201 17.8761 32.5279 17.7143 32.3984 17.5852L24.3491 9.56718Z" fill="#225039"/>
<path d="M24.4172 31.5391C21.9344 31.5391 16.5461 30.379 12.4633 29.4074C11.6404 29.2111 10.9877 28.5764 10.717 27.7093C10.4248 26.7739 10.6367 25.7551 11.2692 25.0508L11.2782 25.0405L16.4628 19.5422C16.512 19.4847 16.5724 19.4378 16.6403 19.4043C16.7082 19.3709 16.7821 19.3516 16.8577 19.3476C16.9333 19.3436 17.0089 19.355 17.0799 19.3811C17.151 19.4072 17.216 19.4475 17.271 19.4995C17.3259 19.5515 17.3698 19.6141 17.3999 19.6836C17.4299 19.753 17.4455 19.8279 17.4458 19.9036C17.446 19.9792 17.4309 20.0542 17.4013 20.1239C17.3717 20.1935 17.3283 20.2564 17.2736 20.3088L12.0959 25.8002C11.7285 26.2127 11.6086 26.8156 11.7835 27.3746C11.9377 27.8692 12.2798 28.2133 12.7224 28.3199C16.0172 29.1049 21.9177 30.4215 24.4172 30.4215C26.6653 30.4215 31.5835 29.3812 35.314 28.5085C35.9023 28.371 36.3754 27.9005 36.5799 27.25C36.8124 26.51 36.6534 25.7108 36.1644 25.1625L31.5603 20.3101C31.4583 20.2026 31.4032 20.059 31.407 19.9109C31.4109 19.7628 31.4735 19.6223 31.5809 19.5203C31.6884 19.4183 31.832 19.3632 31.9801 19.367C32.1282 19.3709 32.2687 19.4335 32.3707 19.5409L36.9804 24.3964L36.9907 24.408C37.7461 25.2502 37.997 26.4688 37.6455 27.586C37.3215 28.6172 36.5451 29.3688 35.5684 29.5969C31.7807 30.4812 26.7697 31.5391 24.4172 31.5391Z" fill="#225039"/>
<path d="M33.1538 19.415C33.1418 19.415 33.1302 19.415 33.1182 19.415C28.3005 19.1143 24.7749 17.6507 22.6652 16.4764C20.3595 15.1929 19.2053 13.9812 19.1572 13.9305C19.0555 13.8228 19.0008 13.679 19.005 13.5309C19.0093 13.3828 19.0722 13.2424 19.18 13.1407C19.2877 13.039 19.4315 12.9843 19.5796 12.9886C19.7277 12.9928 19.868 13.0558 19.9697 13.1635C19.9878 13.1824 21.0895 14.328 23.2543 15.5268C25.2562 16.6341 28.6047 18.0147 33.1878 18.3013C33.3359 18.3058 33.4762 18.369 33.5778 18.4769C33.6794 18.5848 33.7339 18.7287 33.7294 18.8769C33.7249 19.025 33.6617 19.1653 33.5538 19.2669C33.4458 19.3684 33.302 19.423 33.1538 19.4185V19.415Z" fill="#225039"/>
<path d="M37.0079 28.2559H36.9851C33.4187 28.1132 30.1101 27.6243 27.1513 26.8027C24.7751 26.1423 22.6181 25.2666 20.7399 24.1997C17.5048 22.3615 16.2157 20.5937 16.1625 20.519C16.0784 20.3985 16.0452 20.2498 16.07 20.1051C16.0947 19.9603 16.1755 19.8311 16.2948 19.7455C16.4141 19.6599 16.5624 19.6247 16.7074 19.6475C16.8525 19.6703 16.9827 19.7494 17.07 19.8675C17.488 20.4433 18.9228 21.8948 21.3668 23.2702C23.1642 24.2822 25.234 25.1145 27.5114 25.7435C30.3692 26.5316 33.57 27.0012 37.0285 27.1396C37.1767 27.1425 37.3176 27.2041 37.4203 27.3109C37.523 27.4177 37.5791 27.561 37.5762 27.7091C37.5733 27.8573 37.5116 27.9982 37.4048 28.1009C37.298 28.2036 37.1548 28.2597 37.0066 28.2568L37.0079 28.2559Z" fill="#225039"/>
<path d="M31.1468 25.1299C32.059 25.1299 32.7985 24.3904 32.7985 23.4782C32.7985 22.5659 32.059 21.8264 31.1468 21.8264C30.2346 21.8264 29.4951 22.5659 29.4951 23.4782C29.4951 24.3904 30.2346 25.1299 31.1468 25.1299Z" fill="#F3B427"/>
<path d="M31.147 25.4736C30.7524 25.4735 30.3666 25.3564 30.0385 25.1371C29.7104 24.9178 29.4547 24.6061 29.3037 24.2415C29.1528 23.8769 29.1133 23.4756 29.1904 23.0886C29.2674 22.7015 29.4575 22.346 29.7366 22.067C30.0157 21.788 30.3712 21.598 30.7583 21.521C31.1454 21.444 31.5466 21.4836 31.9112 21.6346C32.2758 21.7857 32.5874 22.0414 32.8067 22.3696C33.0259 22.6977 33.1429 23.0835 33.1429 23.4782C33.1422 24.0072 32.9317 24.5145 32.5576 24.8886C32.1834 25.2626 31.6761 25.473 31.147 25.4736ZM31.147 22.1702C30.8883 22.1703 30.6355 22.2471 30.4205 22.3908C30.2054 22.5346 30.0378 22.7389 29.9389 22.9779C29.84 23.2169 29.8141 23.4799 29.8647 23.7336C29.9152 23.9873 30.0398 24.2203 30.2227 24.4032C30.4057 24.5861 30.6387 24.7106 30.8924 24.761C31.1461 24.8115 31.4091 24.7855 31.6481 24.6865C31.8871 24.5875 32.0913 24.4199 32.235 24.2048C32.3787 23.9897 32.4554 23.7368 32.4554 23.4782C32.4546 23.1316 32.3165 22.7995 32.0712 22.5546C31.8259 22.3098 31.4936 22.1721 31.147 22.1719V22.1702Z" fill="#225039"/>
<path d="M13.4829 36.2317C14.3951 36.2317 15.1346 35.4922 15.1346 34.5799C15.1346 33.6677 14.3951 32.9282 13.4829 32.9282C12.5707 32.9282 11.8312 33.6677 11.8312 34.5799C11.8312 35.4922 12.5707 36.2317 13.4829 36.2317Z" fill="#FA9800"/>
<path d="M13.4829 36.5754C13.0882 36.5754 12.7024 36.4583 12.3742 36.2391C12.0461 36.0198 11.7903 35.7082 11.6393 35.3436C11.4883 34.9789 11.4487 34.5777 11.5257 34.1906C11.6027 33.8036 11.7928 33.448 12.0719 33.1689C12.3509 32.8899 12.7065 32.6998 13.0936 32.6228C13.4807 32.5458 13.8819 32.5853 14.2465 32.7364C14.6111 32.8874 14.9228 33.1432 15.1421 33.4713C15.3613 33.7995 15.4784 34.1853 15.4784 34.5799C15.4778 35.109 15.2674 35.6162 14.8933 35.9903C14.5192 36.3644 14.0119 36.5748 13.4829 36.5754ZM13.4829 33.272C13.2242 33.272 12.9713 33.3487 12.7562 33.4924C12.5411 33.6361 12.3735 33.8404 12.2745 34.0794C12.1755 34.3184 12.1496 34.5814 12.2 34.8351C12.2505 35.0888 12.3751 35.3219 12.558 35.5048C12.7409 35.6877 12.974 35.8123 13.2277 35.8628C13.4814 35.9132 13.7444 35.8873 13.9834 35.7883C14.2224 35.6893 14.4267 35.5217 14.5704 35.3066C14.7141 35.0915 14.7909 34.8386 14.7909 34.5799C14.7905 34.2331 14.6526 33.9007 14.4074 33.6554C14.1622 33.4102 13.8297 33.2723 13.4829 33.272Z" fill="#225039"/>
<path d="M27.5776 45.2174H21.1654C21.0753 45.2169 20.9864 45.1962 20.9054 45.1568C20.8244 45.1174 20.7532 45.0604 20.6972 44.9898C20.6412 44.9192 20.6017 44.837 20.5818 44.7491C20.5618 44.6612 20.5618 44.57 20.5818 44.4822L21.3372 41.1916C21.3678 41.0591 21.4424 40.9409 21.5487 40.8563C21.6551 40.7716 21.787 40.7254 21.9229 40.7253H26.7582C26.8921 40.7255 27.0222 40.7705 27.1277 40.853C27.2333 40.9355 27.3083 41.0509 27.3408 41.1808L28.1607 44.4727C28.1823 44.5612 28.1836 44.6534 28.1644 44.7424C28.1453 44.8314 28.1061 44.915 28.05 44.9867C27.9938 45.0584 27.9221 45.1164 27.8403 45.1564C27.7585 45.1963 27.6686 45.2172 27.5776 45.2174Z" fill="#B73F39"/>
<path d="M27.5775 45.5611H21.1653C21.0233 45.561 20.8832 45.5289 20.7553 45.4672C20.6275 45.4055 20.5151 45.3158 20.4267 45.2048C20.3382 45.0938 20.2759 44.9642 20.2444 44.8258C20.2128 44.6874 20.2129 44.5436 20.2445 44.4052L20.9999 41.1147C21.047 40.9059 21.164 40.7195 21.3314 40.5863C21.4988 40.453 21.7067 40.3808 21.9207 40.3816H26.7581C26.9688 40.3818 27.1734 40.4523 27.3395 40.582C27.5055 40.7117 27.6235 40.8931 27.6746 41.0975L28.494 44.3868C28.5286 44.526 28.531 44.6712 28.5011 44.8115C28.4712 44.9518 28.4098 45.0835 28.3215 45.1965C28.2331 45.3095 28.1203 45.401 27.9914 45.4639C27.8625 45.5269 27.721 45.5597 27.5775 45.5598V45.5611ZM21.9207 41.0691C21.8624 41.0687 21.8058 41.0883 21.7602 41.1246C21.7146 41.1609 21.6829 41.2117 21.6702 41.2685L20.9148 44.5586C20.9063 44.5963 20.9064 44.6354 20.915 44.673C20.9236 44.7106 20.9406 44.7458 20.9646 44.776C20.9887 44.8062 21.0192 44.8306 21.0539 44.8474C21.0886 44.8642 21.1267 44.873 21.1653 44.8732H27.5775C27.6165 44.873 27.6549 44.864 27.6899 44.8468C27.7249 44.8296 27.7556 44.8047 27.7796 44.774C27.8036 44.7433 27.8203 44.7075 27.8284 44.6694C27.8366 44.6312 27.836 44.5918 27.8267 44.5539L27.0073 41.2634C26.9933 41.2079 26.9612 41.1586 26.9161 41.1233C26.8709 41.0881 26.8154 41.0689 26.7581 41.0687L21.9207 41.0691Z" fill="#225039"/>
<path d="M24.6639 41.394C22.8661 41.394 18.6805 40.8784 8.94934 38.4291C7.95633 38.1795 7.15539 37.3794 6.80648 36.2893C6.40773 35.0432 6.65996 33.6837 7.46391 32.7384L7.47336 32.7272L11.4145 28.3328C11.4665 28.2748 11.53 28.2283 11.6011 28.1963C11.6721 28.1644 11.7491 28.1476 11.827 28.1471H11.8304C11.9077 28.1472 11.9842 28.1633 12.055 28.1944C12.1258 28.2256 12.1893 28.2711 12.2416 28.328C12.2455 28.3315 12.7027 28.8205 13.7025 29.526C14.6264 30.1796 16.2145 31.1524 18.5357 32.0977C21.1482 33.159 24.1375 33.9638 27.4199 34.4906C31.511 35.1472 36.0717 35.3706 40.9757 35.1541C41.0994 34.2131 40.8468 33.2677 40.259 32.5759L36.6376 28.4209C36.5882 28.3657 36.5504 28.3014 36.5261 28.2315C36.5019 28.1616 36.4918 28.0876 36.4964 28.0138C36.501 27.94 36.5202 27.8678 36.5529 27.8014C36.5856 27.7351 36.6312 27.6759 36.6869 27.6273C36.7427 27.5787 36.8075 27.5417 36.8777 27.5184C36.9479 27.495 37.022 27.4859 37.0958 27.4914C37.1695 27.497 37.2415 27.5171 37.3074 27.5507C37.3733 27.5842 37.4319 27.6306 37.4797 27.687L41.1033 31.8446L41.108 31.8498C42.0778 32.9914 42.3795 34.6329 41.8944 36.1368C41.4724 37.4452 40.5108 38.4016 39.3218 38.6956C34.34 39.9262 27.7525 41.394 24.6639 41.394ZM8.31082 33.4693C7.75867 34.1232 7.5898 35.0733 7.87082 35.9507C8.10457 36.6812 8.59742 37.1908 9.22262 37.3481C13.5693 38.4416 21.3553 40.2768 24.6639 40.2768C26.3066 40.2768 30.1364 39.814 39.0541 37.6106C39.7257 37.4443 40.2813 36.9721 40.6294 36.2863C35.7687 36.4784 31.2415 36.2412 27.1655 35.5812C23.7903 35.0342 20.7138 34.1976 18.0209 33.0937C14.5916 31.6882 12.6644 30.2148 11.8626 29.508L8.31082 33.4693Z" fill="#225039"/>
<path d="M33.043 19.415H33.0069C28.31 19.1142 24.8721 17.6485 22.8156 16.4733C20.5675 15.1886 19.4425 13.976 19.3957 13.9249C19.2988 13.8153 19.2488 13.672 19.2564 13.526C19.264 13.3799 19.3285 13.2426 19.4362 13.1436C19.5439 13.0446 19.6862 12.9918 19.8324 12.9966C19.9786 13.0014 20.1171 13.0633 20.2181 13.169C20.2332 13.1849 21.3057 14.3292 23.415 15.5289C25.3624 16.6349 28.6198 18.0133 33.0787 18.2999C33.2268 18.3047 33.367 18.3681 33.4685 18.4762C33.5699 18.5843 33.6242 18.7282 33.6195 18.8764C33.6147 19.0245 33.5513 19.1647 33.4432 19.2661C33.3351 19.3675 33.1912 19.4219 33.043 19.4171V19.415Z" fill="#225039"/>
<path d="M36.7541 28.256H36.7309C33.2474 28.1129 30.0175 27.6239 27.1304 26.8019C24.8101 26.1411 22.7046 25.2645 20.8703 24.1967C17.7116 22.3572 16.4531 20.5873 16.4015 20.5139C16.3164 20.3926 16.2829 20.2424 16.3085 20.0964C16.3341 19.9504 16.4166 19.8206 16.5379 19.7355C16.6592 19.6504 16.8094 19.6169 16.9554 19.6425C17.1014 19.6681 17.2312 19.7506 17.3163 19.8719C17.7237 20.4468 19.121 21.8979 21.5058 23.2729C23.2585 24.284 25.2746 25.1154 27.4982 25.7441C30.2847 26.5317 33.4069 27.0009 36.7795 27.1393C36.9276 27.1423 37.0685 27.204 37.1711 27.3109C37.2737 27.4178 37.3297 27.5611 37.3267 27.7092C37.3237 27.8574 37.2619 27.9983 37.155 28.1009C37.0481 28.2035 36.9049 28.2595 36.7567 28.2564L36.7541 28.256Z" fill="#225039"/>
<path d="M26.9134 4.96975C26.938 4.94575 26.9553 4.91538 26.9635 4.88205C26.9717 4.84873 26.9705 4.81378 26.9599 4.78113C26.9493 4.74849 26.9298 4.71944 26.9036 4.69727C26.8774 4.6751 26.8455 4.66069 26.8116 4.65565L25.3352 4.4408C25.3056 4.43649 25.2775 4.42504 25.2533 4.40745C25.2291 4.38986 25.2096 4.36665 25.1964 4.33983L24.6511 3.23553L24.5347 3.00264L24.5278 2.99018C24.5232 2.98233 24.5181 2.97486 24.5123 2.96783L24.5037 2.95752C24.4978 2.95131 24.4914 2.94543 24.4848 2.9399C24.4519 2.91388 24.4112 2.89979 24.3692 2.89994C24.3487 2.90001 24.3282 2.90335 24.3087 2.90982C24.3009 2.91268 24.2933 2.91598 24.2859 2.91971C24.2746 2.92537 24.264 2.93213 24.2541 2.9399C24.2474 2.94532 24.2411 2.95121 24.2352 2.95752L24.2262 2.96783C24.2177 2.97865 24.2103 2.99031 24.2042 3.00264L23.5464 4.33983C23.5332 4.3666 23.5137 4.38977 23.4896 4.40736C23.4655 4.42495 23.4375 4.43642 23.408 4.4408L21.9316 4.65565C21.8976 4.66062 21.8657 4.67499 21.8395 4.69713C21.8132 4.71928 21.7937 4.74831 21.783 4.78097C21.7724 4.81363 21.7711 4.84861 21.7793 4.88196C21.7875 4.91531 21.8048 4.94572 21.8293 4.96975L22.898 6.01088C22.9193 6.03179 22.9353 6.05757 22.9445 6.08601C22.9537 6.11445 22.9559 6.1447 22.9508 6.17416L22.6986 7.64456C22.6928 7.67843 22.6965 7.71326 22.7095 7.7451C22.7224 7.77694 22.7441 7.80451 22.7719 7.82469C22.7997 7.84487 22.8326 7.85684 22.8669 7.85926C22.9012 7.86167 22.9355 7.85442 22.9659 7.83834L24.2863 7.1444C24.3128 7.13037 24.3423 7.12303 24.3722 7.12303C24.4022 7.12303 24.4317 7.13037 24.4582 7.1444L25.7786 7.83834C25.809 7.85442 25.8433 7.86167 25.8776 7.85926C25.9119 7.85684 25.9448 7.84487 25.9726 7.82469C26.0004 7.80451 26.0221 7.77694 26.035 7.7451C26.048 7.71326 26.0517 7.67843 26.0459 7.64456L25.7937 6.17416C25.7886 6.1447 25.7908 6.11445 25.8 6.08601C25.8092 6.05757 25.8252 6.03179 25.8465 6.01088L26.9134 4.96975Z" fill="#FFEABA"/>
<path d="M22.879 8.2041C22.8022 8.20389 22.7263 8.18692 22.6566 8.15438C22.587 8.12185 22.5253 8.07453 22.4758 8.01572C22.4263 7.9569 22.3902 7.88801 22.3701 7.81383C22.3499 7.73966 22.3462 7.66198 22.3591 7.58621L22.5972 6.19875L21.5891 5.21605C21.5181 5.14734 21.4678 5.06007 21.4439 4.96418C21.42 4.86829 21.4235 4.76761 21.454 4.6736C21.4845 4.5796 21.5407 4.49603 21.6163 4.43241C21.6919 4.36879 21.7839 4.32766 21.8817 4.31371L23.2748 4.11132L23.8983 2.8489C23.9151 2.81413 23.9359 2.7814 23.9601 2.75136C23.9687 2.74062 23.9765 2.7316 23.9846 2.723C24.0021 2.70381 24.0211 2.686 24.0413 2.66972C24.0699 2.64704 24.1007 2.62732 24.1333 2.61085C24.1548 2.6002 24.1769 2.59087 24.1995 2.58292C24.2838 2.5545 24.3739 2.54747 24.4617 2.56247C24.5494 2.57747 24.6321 2.61403 24.7022 2.66886C24.722 2.68456 24.7406 2.7018 24.7576 2.72042C24.7671 2.73074 24.7753 2.74019 24.7834 2.7505C24.7993 2.76988 24.8136 2.79042 24.8264 2.81195C24.8341 2.82441 24.8397 2.83558 24.8457 2.84675L25.4688 4.10961L26.8622 4.31199C26.96 4.32601 27.0519 4.36718 27.1275 4.43083C27.2031 4.49448 27.2593 4.57805 27.2897 4.67205C27.3201 4.76604 27.3236 4.86669 27.2997 4.96255C27.2758 5.05842 27.2254 5.14565 27.1544 5.21433L26.1464 6.19703L26.3827 7.58621C26.3993 7.6833 26.3884 7.78309 26.3513 7.87431C26.3141 7.96553 26.2522 8.04455 26.1725 8.10243C26.0928 8.16031 25.9985 8.19475 25.9003 8.20186C25.802 8.20897 25.7038 8.18846 25.6166 8.14266L24.3705 7.48781L23.1244 8.14266C23.0488 8.18282 22.9646 8.20392 22.879 8.2041ZM24.3713 6.77926C24.457 6.77915 24.5414 6.8001 24.6171 6.84027L25.6522 7.38383L25.4546 6.23226C25.4402 6.14788 25.4465 6.06127 25.4729 5.97984C25.4993 5.89842 25.5451 5.82462 25.6063 5.76476L26.4433 4.94836L25.287 4.78035C25.2024 4.76807 25.122 4.73542 25.0527 4.68519C24.9835 4.63497 24.9275 4.56868 24.8895 4.49203L24.3739 3.44402L23.8583 4.4916C23.8205 4.56838 23.7645 4.63479 23.6953 4.6851C23.626 4.73541 23.5456 4.7681 23.4608 4.78035L22.3007 4.94922L23.1373 5.76562C23.1982 5.8251 23.2439 5.89847 23.2703 5.97943C23.2967 6.0604 23.3031 6.14656 23.289 6.23055L23.0917 7.38211L24.126 6.83855C24.2017 6.79898 24.2859 6.77862 24.3713 6.77926Z" fill="#F3B427"/>
<path d="M29.4176 16.8958C29.3699 16.8957 29.3227 16.8858 29.2791 16.8666C29.2355 16.8473 29.1963 16.8192 29.1641 16.784L24.7989 12.0145C24.7673 11.9814 24.7426 11.9423 24.7263 11.8996C24.7099 11.8568 24.7023 11.8112 24.7038 11.7655C24.7054 11.7197 24.716 11.6748 24.7352 11.6332C24.7543 11.5916 24.7816 11.5543 24.8153 11.5234C24.8491 11.4925 24.8887 11.4686 24.9318 11.4532C24.9749 11.4378 25.0206 11.4312 25.0663 11.4337C25.112 11.4362 25.1567 11.4479 25.1979 11.4679C25.239 11.4879 25.2758 11.516 25.3059 11.5504L29.6711 16.32C29.7161 16.3692 29.7459 16.4304 29.7567 16.4962C29.7675 16.562 29.759 16.6295 29.7321 16.6905C29.7052 16.7515 29.6612 16.8034 29.6054 16.8399C29.5495 16.8763 29.4843 16.8957 29.4176 16.8958Z" fill="#98D639"/>
<path d="M39.0559 34.461C39.0082 34.461 38.9611 34.4511 38.9174 34.4318C38.8738 34.4126 38.8346 34.3845 38.8024 34.3493L35.5317 30.7747C35.4701 30.7074 35.4378 30.6185 35.4419 30.5274C35.446 30.4363 35.4861 30.3505 35.5534 30.289C35.6207 30.2274 35.7096 30.1952 35.8007 30.1992C35.8918 30.2033 35.9776 30.2434 36.0391 30.3107L39.3094 33.8852C39.3544 33.9344 39.3842 33.9957 39.395 34.0615C39.4058 34.1272 39.3973 34.1948 39.3704 34.2558C39.3435 34.3168 39.2995 34.3687 39.2437 34.4051C39.1878 34.4416 39.1226 34.461 39.0559 34.461Z" fill="#98D639"/>
<path d="M31.6776 24.4626C31.6311 24.4626 31.5859 24.4475 31.5487 24.4196C31.5259 24.4029 31.5067 24.3818 31.492 24.3577C31.4774 24.3335 31.4677 24.3066 31.4635 24.2787C31.4593 24.2508 31.4606 24.2223 31.4674 24.1948C31.4742 24.1674 31.4863 24.1416 31.5031 24.1189C31.7223 23.8215 31.7987 23.5521 31.7313 23.3188C31.611 22.9046 31.0734 22.6859 31.0683 22.6837C31.042 22.6735 31.0179 22.6583 30.9975 22.6388C30.9771 22.6193 30.9607 22.596 30.9493 22.5702C30.9379 22.5444 30.9316 22.5165 30.931 22.4883C30.9303 22.4601 30.9352 22.432 30.9454 22.4057C30.9556 22.3794 30.9709 22.3553 30.9903 22.3349C31.0098 22.3145 31.0331 22.2981 31.059 22.2867C31.0848 22.2753 31.1126 22.2691 31.1408 22.2684C31.169 22.2677 31.1971 22.2726 31.2234 22.2828C31.2535 22.2949 31.9629 22.5763 32.1438 23.1989C32.2508 23.5676 32.1519 23.9629 31.849 24.3737C31.8294 24.4008 31.8036 24.423 31.7739 24.4385C31.7441 24.4539 31.7111 24.4622 31.6776 24.4626Z" fill="#FFEABA"/>
<path d="M13.9169 35.5908C13.877 35.5908 13.8379 35.5797 13.804 35.5587C13.7701 35.5378 13.7426 35.5078 13.7248 35.4721C13.7069 35.4364 13.6994 35.3964 13.703 35.3567C13.7066 35.3169 13.7211 35.279 13.7451 35.2471C13.9634 34.9506 14.0403 34.682 13.9732 34.4487C13.8525 34.0314 13.3137 33.8166 13.3085 33.8131C13.2822 33.8029 13.2582 33.7876 13.2378 33.7681C13.2174 33.7485 13.2011 33.7252 13.1898 33.6993C13.1784 33.6735 13.1723 33.6457 13.1717 33.6175C13.1711 33.5893 13.176 33.5612 13.1863 33.5349C13.1965 33.5086 13.2118 33.4846 13.2314 33.4642C13.2509 33.4438 13.2742 33.4275 13.3001 33.4162C13.3259 33.4048 13.3537 33.3987 13.3819 33.3981C13.4101 33.3975 13.4382 33.4024 13.4645 33.4127C13.4946 33.4243 14.204 33.7061 14.3844 34.3284C14.4919 34.6975 14.3926 35.0924 14.0901 35.5032C14.0701 35.5304 14.0441 35.5524 14.014 35.5677C13.9839 35.5829 13.9507 35.5908 13.9169 35.5908Z" fill="#FFEABA"/>
</svg>
